<?xml version="1.0" encoding="utf-8"?>
<!-- Generator: Adobe Illustrator 19.1.0, SVG Export Plug-In . SVG Version: 6.00 Build 0)  -->
<svg version="1.1" id="Слой_1" xmlns="http://www.w3.org/2000/svg" xmlns:xlink="http://www.w3.org/1999/xlink" x="0px" y="0px"
	 viewBox="0 0 34 34" style="enable-background:new 0 0 34 34;" xml:space="preserve">
<style type="text/css">
	.st0{fill-rule:evenodd;clip-rule:evenodd;fill:#FFFFFF;}
</style>
<path class="st0" d="M18.5,28.4C18.1,28.8,17.6,29,17,29c-0.6,0-1.1-0.2-1.5-0.6c-0.4-0.4-0.6-0.9-0.6-1.5h4.3
	C19.1,27.5,18.9,28,18.5,28.4z M25.2,20.1c-0.4-1.6-0.8-3.6-1.2-6.2c-0.2-1.4-0.8-2.6-1.4-3.4c-0.3-0.4-0.7-0.7-1.2-1
	c-0.9-0.6-1.7-0.9-2.6-1.1c-0.3-0.1-0.6-0.4-0.6-0.7v0c0-0.7-0.6-1.2-1.3-1.2c-0.7,0-1.3,0.6-1.3,1.2v0c0,0.3-0.2,0.6-0.5,0.7
	c-0.9,0.2-1.7,0.5-2.6,1.1c-1.3,0.8-2.3,2.2-2.6,4.4c-0.4,2.5-0.7,4.6-1.2,6.2C8.4,21.7,7.8,23.7,7,25h20
	C26.2,23.7,25.6,21.6,25.2,20.1z M28.9,25.7c-0.1,0.2-0.4,0.4-0.6,0.4H5.7c-0.3,0-0.5-0.1-0.6-0.4C5,25.6,5,25.3,5,25.2
	c0-0.1,0.1-0.3,0.1-0.4c0.9-1.4,1.6-2.8,2.1-4.4C7.7,18.9,8.6,16.9,9,14c0.2-1.7,0.5-3.4,1.2-4.3c0.4-0.5,0.8-0.9,1.3-1.2
	c1-0.7,1.8-1.1,2.8-1.3c0.1-0.6,0.4-1.1,0.9-1.5C15.8,5.2,16.4,5,17,5c0.7,0,1.2,0.2,1.7,0.6c0.5,0.4,0.8,0.9,1,1.5
	c0.9,0.3,1.7,0.6,2.7,1.3c0.5,0.4,1,0.8,1.3,1.2c0.8,0.9,1.5,2.4,1.7,4c0.4,2.9,0.8,5.1,1.3,6.7c0.5,1.5,1.2,3.2,2.1,4.5
	c0.1,0.1,0.1,0.2,0.1,0.4C29,25.4,29,25.6,28.9,25.7z"/>
</svg>
