<?xml version="1.0" encoding="utf-8"?>
<!-- Generator: Adobe Illustrator 19.1.0, SVG Export Plug-In . SVG Version: 6.00 Build 0)  -->
<svg version="1.1" id="Слой_1" xmlns="http://www.w3.org/2000/svg" xmlns:xlink="http://www.w3.org/1999/xlink" x="0px" y="0px"
	 viewBox="0 0 16 16" style="enable-background:new 0 0 16 16;" xml:space="preserve">
<style type="text/css">
	.st0{fill-rule:evenodd;clip-rule:evenodd;fill:#8EBC4D;}
</style>
<path class="st0" d="M6.8,1.2c-3.1,0-5.5,2.5-5.5,5.6c0,3.1,2.5,5.6,5.5,5.6c3.1,0,5.5-2.5,5.5-5.6C12.3,3.7,9.8,1.2,6.8,1.2z
	 M15.8,15.8c-0.2,0.2-0.6,0.2-0.8,0l-3.9-3.9c-1.2,1-2.7,1.6-4.3,1.6C3,13.5,0,10.5,0,6.8C0,3,3,0,6.8,0c3.7,0,6.7,3,6.7,6.8
	c0,1.7-0.6,3.2-1.6,4.3l3.9,3.9C16,15.2,16,15.6,15.8,15.8z"/>
</svg>
