<?xml version="1.0" encoding="utf-8"?>
<!-- Generator: Adobe Illustrator 19.1.0, SVG Export Plug-In . SVG Version: 6.00 Build 0)  -->
<svg version="1.1" id="Слой_1" xmlns="http://www.w3.org/2000/svg" xmlns:xlink="http://www.w3.org/1999/xlink" x="0px" y="0px"
	 viewBox="-22 24 34 34" style="enable-background:new -22 24 34 34;" xml:space="preserve">
<style type="text/css">
	.st0{fill:#FFFFFF;}
</style>
<path class="st0" d="M-12.8,38h4.6c0.3,0,0.5,0.2,0.5,0.5l0,0c0,0.3-0.2,0.4-0.5,0.4h-4.6c-0.3,0-0.5-0.2-0.5-0.4l0,0
	C-13.3,38.2-13.1,38-12.8,38z M-6,36h-6.8c-0.3,0-0.5-0.2-0.5-0.4l0,0c0-0.3,0.2-0.5,0.5-0.5H-6c0.3,0,0.5,0.3,0.5,0.6l0,0
	C-5.5,35.9-5.7,36-6,36z M-13.3,41.6L-13.3,41.6c0-0.3,0.2-0.6,0.5-0.6h9.1c0.3,0,0.5,0.3,0.5,0.6l0,0c0,0.3-0.2,0.4-0.5,0.4h-9.1
	C-13.1,42-13.3,41.9-13.3,41.6z M0,46V31h-17v15h5.9v2l2-2H0z M-7,47c-0.4,0-0.8,0-1.1,0c-0.2,0-0.3,0-0.5,0c-0.7,0.6-2,1.7-2.7,2.3
	c-0.3,0.2-0.9,0-0.9-0.3c0-0.1,0-1.1,0-2c-2.3,0-4.7,0-4.7,0c-0.8,0-1.1-0.3-1.1-1.2V31.1c0-0.8,0.1-1.1,1-1.1H0c0.8,0,1,0.2,1,1.1
	v14.2c0,0.8-0.8,1.8-1.6,1.8C-0.6,47-4.3,47-7,47L-7,47C-7.1,47-7.1,47-7,47z M7,49c0,0-2.7,0-5,0c0,1,0,2.5,0,2.6
	c0,0.3-0.7,0.5-1,0.3c-0.7-0.6-1-1.2-2.1-2.9c-0.2,0-0.8,0-0.9,0c-2.6,0-4,0-4,0c-0.8,0-1-0.3-1-1.2V47c0.2,0,1,0,1,0v1h5.9L1,50v-2
	h6v-9H1v-1h5.5C7.3,38,8,38.3,8,39.2v8.7C8,48.7,7.8,49,7,49z"/>
</svg>
