<?xml version="1.0" encoding="utf-8"?>
<!-- Generator: Adobe Illustrator 19.1.0, SVG Export Plug-In . SVG Version: 6.00 Build 0)  -->
<svg version="1.1" id="Слой_1" xmlns="http://www.w3.org/2000/svg" xmlns:xlink="http://www.w3.org/1999/xlink" x="0px" y="0px"
	 viewBox="0 0 24 24" style="enable-background:new 0 0 24 24;" xml:space="preserve">
<style type="text/css">
	.st0{fill-rule:evenodd;clip-rule:evenodd;fill:#C7CDD9;}
</style>
<path class="st0" d="M24,2.5c0-2.6,0.3-2.4-2.4-2.4H2.4C-0.3,0.2,0-0.1,0,2.5v18.9c0,2.6-0.3,2.4,2.4,2.4h19.2
	c2.7,0,2.4,0.2,2.4-2.4V2.5z M23,23H1V1h22V23z"/>
<rect x="11.1" y="17" class="st0" width="1.8" height="2"/>
<path class="st0" d="M9.3,7c0.3-0.4,0.6-0.7,1.1-0.9c0.5-0.2,1-0.3,1.6-0.3c0.5,0,1,0,1.5,0.2c0.4,0.2,0.9,0.5,1.2,0.8
	c0.3,0.3,0.6,0.7,0.8,1.1c0.2,0.4,0.2,0.9,0.2,1.4c0,0.4-0.1,0.7-0.2,0.9c-0.1,0.3,0,0.5-0.2,0.8c-0.1,0.2-0.2,0.4-0.4,0.6
	c-0.2,0.2-0.4,0.4-0.6,0.6c-0.2,0.2-0.4,0.3-0.6,0.5c-0.2,0.2-0.2,0.4-0.3,0.6c-0.1,0.2-0.3,0.4-0.3,0.6c-0.1,0.2-0.1,0.6-0.1,0.9
	v0.7h-1.7v-0.9c0-0.5,0.1-0.9,0.3-1.2c0.2-0.3,0.3-0.6,0.6-0.9c0.2-0.3,1.1-1.1,1.4-1.4c0.5-0.6,0.8-1,0.8-1.9
	c0-0.6-0.1-1.1-0.5-1.5c-0.4-0.4-1-0.5-1.7-0.5c-0.4,0-0.6,0.1-0.9,0.2c-0.3,0.1-0.5,0.4-0.7,0.6C10.2,8.3,10.1,8.6,10,9
	c-0.1,0.3-0.1,0.6-0.1,1H8.3c0-0.6,0-1,0.2-1.5C8.7,7.9,9,7.4,9.3,7z"/>
</svg>
