<?xml version="1.0" encoding="utf-8"?>
<!-- Generator: Adobe Illustrator 19.1.0, SVG Export Plug-In . SVG Version: 6.00 Build 0)  -->
<svg version="1.1" id="Слой_1" xmlns="http://www.w3.org/2000/svg" xmlns:xlink="http://www.w3.org/1999/xlink" x="0px" y="0px"
	 viewBox="0 0 24 24" style="enable-background:new 0 0 24 24;" xml:space="preserve">
<style type="text/css">
	.st0{fill:#C7CDD9;}
	.st1{fill:#FFFFFF;}
</style>
<path class="st0" d="M21,6h-7.5H13h-0.5V1.5C12.5,0.7,11.8,0,11,0H3C2.2,0,1.5,0.7,1.5,1.5v21C1.5,23.3,2.2,24,3,24h8
	c0,0,0.1,0,0.1,0v0H13h8c0.8,0,1.5-0.7,1.5-1.5v-15C22.5,6.7,21.8,6,21,6z"/>
<path class="st1" d="M21.5,7.5C21.5,7.2,21.3,7,21,7h-8c-0.3,0-0.5,0.2-0.5,0.5v15c0,0.3,0.2,0.5,0.5,0.5h8c0.3,0,0.5-0.2,0.5-0.5
	V7.5z"/>
<path class="st1" d="M11.5,1.5C11.5,1.2,11.3,1,11,1H3C2.7,1,2.5,1.2,2.5,1.5v21C2.5,22.8,2.7,23,3,23h8c0.3,0,0.5-0.2,0.5-0.5V1.5z
	"/>
<rect x="15.5" y="17" class="st0" width="3" height="3"/>
<rect x="15.5" y="10.5" class="st0" width="3" height="3"/>
<rect x="5.5" y="17" class="st0" width="3" height="3"/>
<rect x="5.5" y="10.5" class="st0" width="3" height="3"/>
<rect x="5.5" y="4" class="st0" width="3" height="3"/>
</svg>
