<?xml version="1.0" encoding="utf-8"?>
<!-- Generator: Adobe Illustrator 19.1.0, SVG Export Plug-In . SVG Version: 6.00 Build 0)  -->
<svg version="1.1" id="Слой_1" xmlns="http://www.w3.org/2000/svg" xmlns:xlink="http://www.w3.org/1999/xlink" x="0px" y="0px"
	 viewBox="0 0 24 24" style="enable-background:new 0 0 24 24;" xml:space="preserve">
<style type="text/css">
	.st0{fill:#C7CDD9;}
</style>
<g>
	<path class="st0" d="M23.5,13.1c-0.1,0.1-0.2,0-0.3,0c-0.2,0-0.4-0.2-0.5-0.3L12,1.5l-10.3,11c-0.3,0.3-0.8,0.9-1.1,0.6
		c-0.3-0.3-0.7-0.5-0.5-0.8L11.5,0.7c0.1-0.1,0.3-0.2,0.5-0.2c0.2,0,0.3,0.1,0.5,0.2l4.5,4.6v-3c0-0.4,0.2-0.6,0.5-0.6
		c0.4,0,0.5,0.2,0.5,0.6v4.2l5.9,5.9C24.1,12.6,23.8,12.8,23.5,13.1z M19.3,23.5h-4.6c-0.4,0-0.7-0.3-0.7-0.7v-4.2h-4v4.2
		c0,0.4-0.3,0.7-0.7,0.7H4.6c-0.4,0-0.7-0.3-0.7-0.7v-9c0-0.4,0.2-0.6,0.6-0.6c0.4,0,0.4,0.2,0.4,0.6v8.7h4v-4.3
		c0-0.4,0.3-0.7,0.7-0.7h4.7c0.4,0,0.7,0.3,0.7,0.7v4.3h4v-8.6c0-0.4,0.2-0.7,0.6-0.7c0.4,0,0.4,0.3,0.4,0.7v8.9
		C20,23.2,19.7,23.5,19.3,23.5z"/>
</g>
</svg>
