<?xml version="1.0" encoding="utf-8"?>
<!-- Generator: Adobe Illustrator 19.1.0, SVG Export Plug-In . SVG Version: 6.00 Build 0)  -->
<svg version="1.1" id="Слой_1" xmlns="http://www.w3.org/2000/svg" xmlns:xlink="http://www.w3.org/1999/xlink" x="0px" y="0px"
	 viewBox="0 0 24 24" style="enable-background:new 0 0 24 24;" xml:space="preserve">
<style type="text/css">
	.st0{fill:#C7CDD9;}
	.st1{fill:#FFFFFF;}
</style>
<path class="st0" d="M20,24H4c-0.8,0-1.5-0.7-1.5-1.5v-21C2.5,0.7,3.2,0,4,0h16c0.8,0,1.5,0.7,1.5,1.5v21C21.5,23.3,20.8,24,20,24z"
	/>
<path class="st1" d="M20.5,1.5C20.5,1.2,20.3,1,20,1H4C3.7,1,3.5,1.2,3.5,1.5v21C3.5,22.8,3.7,23,4,23h16c0.3,0,0.5-0.2,0.5-0.5V1.5
	z"/>
<rect x="5.5" y="11" class="st0" width="13" height="2"/>
<rect x="5.5" y="15" class="st0" width="13" height="2"/>
<rect x="5.5" y="19" class="st0" width="13" height="2"/>
<rect x="9.5" y="3" class="st0" width="9" height="2"/>
<rect x="5.5" y="7" class="st0" width="13" height="2"/>
</svg>
