<?xml version="1.0" encoding="utf-8"?>
<!-- Generator: Adobe Illustrator 19.1.0, SVG Export Plug-In . SVG Version: 6.00 Build 0)  -->
<svg version="1.1" id="Слой_1" xmlns="http://www.w3.org/2000/svg" xmlns:xlink="http://www.w3.org/1999/xlink" x="0px" y="0px"
	 viewBox="0 0 80 80" style="enable-background:new 0 0 80 80;" xml:space="preserve">
<style type="text/css">
	.st0{fill:#65AACD;}
	.st1{clip-path:url(#SVGID_2_);fill:#6EBADF;}
</style>
<path class="st0" d="M31.2,53c1-1,1-2.6,0-3.6c-1-1-2.6-1-3.7,0L23.9,53l-3.6-3.6c-1-1-2.6-1-3.7,0c-1,1-1,2.6,0,3.6l3.7,3.7
	l-3.7,3.6c-1,1-1,2.6,0,3.6c0.5,0.5,1.2,0.8,1.8,0.8c0.7,0,1.3-0.2,1.8-0.8l3.6-3.6l3.6,3.6c0.5,0.5,1.2,0.8,1.8,0.8
	c0.7,0,1.3-0.2,1.8-0.8c1-1,1-2.6,0-3.6l-3.6-3.6L31.2,53z M34,26.4c0-1.4-1.1-2.6-2.6-2.6h-5.1v-5.1c0-1.4-1.1-2.6-2.6-2.6
	c-1.4,0-2.6,1.1-2.6,2.6v5.1h-5.1c-1.4,0-2.6,1.1-2.6,2.6c0,1.4,1.1,2.6,2.6,2.6h5.1V34c0,1.4,1.1,2.6,2.6,2.6
	c1.4,0,2.6-1.1,2.6-2.6v-5.1h5.1C32.9,28.9,34,27.8,34,26.4z M63.4,53c1-1,1-2.6,0-3.6c-1-1-2.6-1-3.6,0L48.8,60.3c-1,1-1,2.6,0,3.6
	c0.5,0.5,1.2,0.8,1.8,0.8c0.7,0,1.3-0.2,1.8-0.8L63.4,53z M66.4,26.4c0-1.4-1.1-2.6-2.6-2.6H48.5c-1.4,0-2.6,1.1-2.6,2.6
	c0,1.4,1.1,2.6,2.6,2.6h15.3C65.3,28.9,66.4,27.8,66.4,26.4z M74.1,14.5v51c0,4.7-3.8,8.5-8.5,8.5H14.5c-4.7,0-8.5-3.8-8.5-8.5v-51
	C5.9,9.8,9.8,6,14.5,6h51.1C70.2,6,74.1,9.8,74.1,14.5z"/>
<g>
	<defs>
		<rect id="SVGID_1_" width="40" height="80"/>
	</defs>
	<clipPath id="SVGID_2_">
		<use xlink:href="#SVGID_1_"  style="overflow:visible;"/>
	</clipPath>
	<path class="st1" d="M31.2,53c1-1,1-2.6,0-3.6c-1-1-2.6-1-3.7,0L23.9,53l-3.6-3.6c-1-1-2.6-1-3.7,0c-1,1-1,2.6,0,3.6l3.7,3.7
		l-3.7,3.6c-1,1-1,2.6,0,3.6c0.5,0.5,1.2,0.8,1.8,0.8c0.7,0,1.3-0.2,1.8-0.8l3.6-3.6l3.6,3.6c0.5,0.5,1.2,0.8,1.8,0.8
		c0.7,0,1.3-0.2,1.8-0.8c1-1,1-2.6,0-3.6l-3.6-3.6L31.2,53z M34,26.4c0-1.4-1.1-2.6-2.6-2.6h-5.1v-5.1c0-1.4-1.1-2.6-2.6-2.6
		c-1.4,0-2.6,1.1-2.6,2.6v5.1h-5.1c-1.4,0-2.6,1.1-2.6,2.6c0,1.4,1.1,2.6,2.6,2.6h5.1V34c0,1.4,1.1,2.6,2.6,2.6
		c1.4,0,2.6-1.1,2.6-2.6v-5.1h5.1C32.9,28.9,34,27.8,34,26.4z M63.4,53c1-1,1-2.6,0-3.6c-1-1-2.6-1-3.6,0L48.8,60.3
		c-1,1-1,2.6,0,3.6c0.5,0.5,1.2,0.8,1.8,0.8c0.7,0,1.3-0.2,1.8-0.8L63.4,53z M66.4,26.4c0-1.4-1.1-2.6-2.6-2.6H48.5
		c-1.4,0-2.6,1.1-2.6,2.6c0,1.4,1.1,2.6,2.6,2.6h15.3C65.3,28.9,66.4,27.8,66.4,26.4z M74.1,14.5v51c0,4.7-3.8,8.5-8.5,8.5H14.5
		c-4.7,0-8.5-3.8-8.5-8.5v-51C5.9,9.8,9.8,6,14.5,6h51.1C70.2,6,74.1,9.8,74.1,14.5z"/>
</g>
</svg>
