<?xml version="1.0" encoding="utf-8"?>
<!-- Generator: Adobe Illustrator 19.1.0, SVG Export Plug-In . SVG Version: 6.00 Build 0)  -->
<svg version="1.1" id="Слой_1" xmlns="http://www.w3.org/2000/svg" xmlns:xlink="http://www.w3.org/1999/xlink" x="0px" y="0px"
	 viewBox="0 0 80 80" style="enable-background:new 0 0 80 80;" xml:space="preserve">
<style type="text/css">
	.st0{fill:#65AACD;}
	.st1{clip-path:url(#SVGID_2_);fill:#6EBADF;}
</style>
<path class="st0" d="M9.7,35.3c-1.9,0.6-3.3,2.4-3.3,4.6c0,2.1,1.3,3.9,3.2,4.5c0.2,1.2,0.4,2.5,0.7,3.7c-4.1-0.5-7.4-4-7.4-8.2
	c0-4.3,3.3-7.9,7.6-8.2C10.2,32.8,9.9,34,9.7,35.3z M11.3,48.1c-0.3,0-0.6,0-0.9,0c-0.3-1.2-0.6-2.4-0.7-3.7
	c0.5,0.2,1.1,0.3,1.7,0.3c0.7,0,1.3-0.1,1.9-0.4c0.2,1.1,0.4,2.3,0.7,3.4C13.1,47.9,12.2,48.1,11.3,48.1z M13.3,35.5
	C12.7,35.2,12,35,11.3,35c-0.5,0-1,0.1-1.5,0.3c0.2-1.2,0.5-2.5,0.8-3.6c0.2,0,0.5,0,0.7,0c1,0,2,0.2,2.9,0.5
	C13.8,33.2,13.5,34.3,13.3,35.5z M31.7,68.8c0,0.3,0,0.6,0,0.9C21.3,66.7,13.1,58.5,10.3,48c0.3,0,0.6,0,0.9,0
	c0.9,0,1.8-0.2,2.7-0.4c2.5,8.8,9.4,15.8,18.2,18.4C31.9,66.9,31.7,67.8,31.7,68.8z M32.3,14.4c-8.6,2.5-15.5,9.2-18.2,17.7
	c-0.9-0.3-1.9-0.5-2.9-0.5c-0.2,0-0.5,0-0.7,0c3-10,11-17.9,21.2-20.7c0,0.1,0,0.2,0,0.4C31.7,12.3,31.9,13.4,32.3,14.4z M35.1,68.8
	c0,0.6,0.1,1.1,0.3,1.7c-1.2-0.2-2.5-0.5-3.7-0.8c0-0.3,0-0.6,0-0.9c0-0.9,0.2-1.8,0.5-2.7c1.1,0.3,2.2,0.6,3.4,0.8
	C35.3,67.4,35.1,68.1,35.1,68.8z M35.8,13.6c-1.2,0.2-2.3,0.4-3.4,0.8c-0.4-1-0.6-2-0.6-3.1c0-0.1,0-0.2,0-0.4
	c1.2-0.3,2.4-0.6,3.6-0.8c-0.1,0.4-0.1,0.7-0.1,1.1C35.1,12.1,35.4,12.9,35.8,13.6z M40,77c-4.3,0-7.8-3.2-8.3-7.4
	c1.2,0.3,2.4,0.6,3.7,0.8c0.7,1.9,2.5,3.2,4.6,3.2c2.1,0,3.9-1.3,4.6-3.2c1.3-0.2,2.5-0.5,3.7-0.8C47.8,73.8,44.3,77,40,77z
	 M44.7,10.1C44.2,8,42.3,6.4,40,6.4c-2.3,0-4.2,1.6-4.7,3.7c-1.2,0.2-2.4,0.4-3.6,0.8C31.9,6.5,35.6,3,40,3c4.4,0,8.1,3.5,8.3,7.9
	C47.1,10.6,45.9,10.3,44.7,10.1z M48.2,69.6c-1.2,0.3-2.4,0.6-3.7,0.8c0.2-0.5,0.3-1.1,0.3-1.6c0-0.7-0.1-1.3-0.4-1.9
	c1.1-0.2,2.3-0.5,3.4-0.8c0.3,0.9,0.5,1.8,0.5,2.7C48.3,69.1,48.3,69.3,48.2,69.6z M47.7,14.4c-1.1-0.3-2.3-0.6-3.4-0.8
	c0.4-0.7,0.6-1.5,0.6-2.4c0-0.4,0-0.8-0.1-1.1c1.2,0.2,2.4,0.4,3.6,0.8c0,0.1,0,0.2,0,0.4C48.3,12.4,48.1,13.4,47.7,14.4z
	 M48.2,69.6c0-0.3,0-0.6,0-0.9c0-0.9-0.2-1.9-0.5-2.7c8.7-2.6,15.5-9.5,18.1-18.1c0.9,0.3,1.8,0.5,2.8,0.5c0.3,0,0.5,0,0.8,0
	C66.7,58.6,58.5,66.7,48.2,69.6z M68.7,31.9c-1,0-1.9,0.2-2.8,0.5c-2.6-8.6-9.5-15.5-18.2-18c0.4-1,0.6-2,0.6-3.2c0-0.1,0-0.2,0-0.4
	C58.5,13.8,66.6,21.8,69.5,32C69.2,31.9,69,31.9,68.7,31.9z M69.5,48.4c-0.3,0-0.5,0-0.8,0c-1,0-1.9-0.2-2.8-0.5
	c0.3-1.1,0.6-2.2,0.8-3.4c0.6,0.3,1.3,0.4,2,0.4c0.5,0,1.1-0.1,1.6-0.3C70.1,46,69.9,47.2,69.5,48.4z M68.7,35.3
	c-0.7,0-1.4,0.2-2,0.5c-0.2-1.1-0.5-2.3-0.8-3.4c0.9-0.3,1.8-0.5,2.8-0.5c0.2,0,0.5,0,0.7,0c0.3,1.2,0.6,2.4,0.8,3.6
	C69.8,35.4,69.3,35.3,68.7,35.3z M69.5,48.4c0.3-1.2,0.6-2.4,0.8-3.6c1.9-0.6,3.3-2.5,3.3-4.6c0-2.1-1.4-4-3.3-4.6
	c-0.2-1.2-0.5-2.4-0.8-3.6c4.2,0.4,7.5,3.9,7.5,8.2C77,44.5,73.7,48,69.5,48.4z M35.5,66.8c-1.1-0.2-2.3-0.5-3.4-0.8
	c1-2.7,3.3-4.8,6.2-5.4v3.5C37.1,64.7,36.1,65.6,35.5,66.8z M60.6,38.6H41.7l0-19.2c2.7-0.6,4.9-2.4,5.9-4.9
	c8.7,2.6,15.6,9.4,18.2,18C63.2,33.4,61.2,35.7,60.6,38.6z M32.2,66.1c-8.8-2.7-15.7-9.6-18.2-18.4c2.6-0.9,4.6-3,5.4-5.7h19l0,18.7
	C35.5,61.3,33.1,63.3,32.2,66.1z M47.8,66.1c-0.9-2.7-3.2-4.7-6.1-5.4l0-18.7h18.9c0.6,2.8,2.7,5,5.3,6
	C63.4,56.6,56.5,63.4,47.8,66.1z M44.5,66.8c-0.5-1.2-1.5-2.1-2.7-2.6v-3.6c2.8,0.6,5.1,2.7,6.1,5.4C46.7,66.4,45.6,66.7,44.5,66.8z
	 M19.4,38.6c-0.5-3-2.5-5.4-5.3-6.4c2.7-8.5,9.6-15.2,18.2-17.7c1,2.5,3.3,4.4,6,4.9l0,19.2H19.4z M15.9,38.6
	c-0.4-1.4-1.3-2.5-2.6-3.1c0.2-1.1,0.5-2.3,0.8-3.3c2.8,1,4.8,3.5,5.3,6.4H15.9z M13.9,47.6c-0.3-1.1-0.6-2.2-0.7-3.4
	c1.1-0.5,1.9-1.3,2.4-2.3h3.6C18.6,44.6,16.5,46.8,13.9,47.6z M64.2,38.6h-3.6c0.6-2.8,2.6-5.2,5.3-6.1c0.3,1.1,0.6,2.2,0.8,3.4
	C65.5,36.3,64.6,37.3,64.2,38.6z M66,47.9c-2.7-0.9-4.7-3.2-5.3-6h3.6c0.5,1.2,1.4,2.1,2.5,2.6C66.6,45.7,66.3,46.8,66,47.9z
	 M41.7,19.3v-3.5c1.1-0.4,2-1.2,2.5-2.1c1.2,0.2,2.3,0.4,3.4,0.8C46.6,16.9,44.4,18.7,41.7,19.3z M32.3,14.4
	c1.1-0.3,2.3-0.6,3.4-0.8c0.6,1,1.4,1.7,2.5,2.1v3.5C35.6,18.7,33.4,16.9,32.3,14.4z"/>
<g>
	<defs>
		<rect id="SVGID_1_" width="40" height="80"/>
	</defs>
	<clipPath id="SVGID_2_">
		<use xlink:href="#SVGID_1_"  style="overflow:visible;"/>
	</clipPath>
	<path class="st1" d="M9.7,35.3c-1.9,0.6-3.3,2.4-3.3,4.6c0,2.1,1.3,3.9,3.2,4.5c0.2,1.2,0.4,2.5,0.7,3.7c-4.1-0.5-7.4-4-7.4-8.2
		c0-4.3,3.3-7.9,7.6-8.2C10.2,32.8,9.9,34,9.7,35.3z M11.3,48.1c-0.3,0-0.6,0-0.9,0c-0.3-1.2-0.6-2.4-0.7-3.7
		c0.5,0.2,1.1,0.3,1.7,0.3c0.7,0,1.3-0.1,1.9-0.4c0.2,1.1,0.4,2.3,0.7,3.4C13.1,47.9,12.2,48.1,11.3,48.1z M13.3,35.5
		C12.7,35.2,12,35,11.3,35c-0.5,0-1,0.1-1.5,0.3c0.2-1.2,0.5-2.5,0.8-3.6c0.2,0,0.5,0,0.7,0c1,0,2,0.2,2.9,0.5
		C13.8,33.2,13.5,34.3,13.3,35.5z M31.7,68.8c0,0.3,0,0.6,0,0.9C21.3,66.7,13.1,58.5,10.3,48c0.3,0,0.6,0,0.9,0
		c0.9,0,1.8-0.2,2.7-0.4c2.5,8.8,9.4,15.8,18.2,18.4C31.9,66.9,31.7,67.8,31.7,68.8z M32.3,14.4c-8.6,2.5-15.5,9.2-18.2,17.7
		c-0.9-0.3-1.9-0.5-2.9-0.5c-0.2,0-0.5,0-0.7,0c3-10,11-17.9,21.2-20.7c0,0.1,0,0.2,0,0.4C31.7,12.3,31.9,13.4,32.3,14.4z
		 M35.1,68.8c0,0.6,0.1,1.1,0.3,1.7c-1.2-0.2-2.5-0.5-3.7-0.8c0-0.3,0-0.6,0-0.9c0-0.9,0.2-1.8,0.5-2.7c1.1,0.3,2.2,0.6,3.4,0.8
		C35.3,67.4,35.1,68.1,35.1,68.8z M35.8,13.6c-1.2,0.2-2.3,0.4-3.4,0.8c-0.4-1-0.6-2-0.6-3.1c0-0.1,0-0.2,0-0.4
		c1.2-0.3,2.4-0.6,3.6-0.8c-0.1,0.4-0.1,0.7-0.1,1.1C35.1,12.1,35.4,12.9,35.8,13.6z M40,77c-4.3,0-7.8-3.2-8.3-7.4
		c1.2,0.3,2.4,0.6,3.7,0.8c0.7,1.9,2.5,3.2,4.6,3.2c2.1,0,3.9-1.3,4.6-3.2c1.3-0.2,2.5-0.5,3.7-0.8C47.8,73.8,44.3,77,40,77z
		 M44.7,10.1C44.2,8,42.3,6.4,40,6.4c-2.3,0-4.2,1.6-4.7,3.7c-1.2,0.2-2.4,0.4-3.6,0.8C31.9,6.5,35.6,3,40,3c4.4,0,8.1,3.5,8.3,7.9
		C47.1,10.6,45.9,10.3,44.7,10.1z M48.2,69.6c-1.2,0.3-2.4,0.6-3.7,0.8c0.2-0.5,0.3-1.1,0.3-1.6c0-0.7-0.1-1.3-0.4-1.9
		c1.1-0.2,2.3-0.5,3.4-0.8c0.3,0.9,0.5,1.8,0.5,2.7C48.3,69.1,48.3,69.3,48.2,69.6z M47.7,14.4c-1.1-0.3-2.3-0.6-3.4-0.8
		c0.4-0.7,0.6-1.5,0.6-2.4c0-0.4,0-0.8-0.1-1.1c1.2,0.2,2.4,0.4,3.6,0.8c0,0.1,0,0.2,0,0.4C48.3,12.4,48.1,13.4,47.7,14.4z
		 M48.2,69.6c0-0.3,0-0.6,0-0.9c0-0.9-0.2-1.9-0.5-2.7c8.7-2.6,15.5-9.5,18.1-18.1c0.9,0.3,1.8,0.5,2.8,0.5c0.3,0,0.5,0,0.8,0
		C66.7,58.6,58.5,66.7,48.2,69.6z M68.7,31.9c-1,0-1.9,0.2-2.8,0.5c-2.6-8.6-9.5-15.5-18.2-18c0.4-1,0.6-2,0.6-3.2
		c0-0.1,0-0.2,0-0.4C58.5,13.8,66.6,21.8,69.5,32C69.2,31.9,69,31.9,68.7,31.9z M69.5,48.4c-0.3,0-0.5,0-0.8,0c-1,0-1.9-0.2-2.8-0.5
		c0.3-1.1,0.6-2.2,0.8-3.4c0.6,0.3,1.3,0.4,2,0.4c0.5,0,1.1-0.1,1.6-0.3C70.1,46,69.9,47.2,69.5,48.4z M68.7,35.3
		c-0.7,0-1.4,0.2-2,0.5c-0.2-1.1-0.5-2.3-0.8-3.4c0.9-0.3,1.8-0.5,2.8-0.5c0.2,0,0.5,0,0.7,0c0.3,1.2,0.6,2.4,0.8,3.6
		C69.8,35.4,69.3,35.3,68.7,35.3z M69.5,48.4c0.3-1.2,0.6-2.4,0.8-3.6c1.9-0.6,3.3-2.5,3.3-4.6c0-2.1-1.4-4-3.3-4.6
		c-0.2-1.2-0.5-2.4-0.8-3.6c4.2,0.4,7.5,3.9,7.5,8.2C77,44.5,73.7,48,69.5,48.4z M35.5,66.8c-1.1-0.2-2.3-0.5-3.4-0.8
		c1-2.7,3.3-4.8,6.2-5.4v3.5C37.1,64.7,36.1,65.6,35.5,66.8z M60.6,38.6H41.7l0-19.2c2.7-0.6,4.9-2.4,5.9-4.9
		c8.7,2.6,15.6,9.4,18.2,18C63.2,33.4,61.2,35.7,60.6,38.6z M32.2,66.1c-8.8-2.7-15.7-9.6-18.2-18.4c2.6-0.9,4.6-3,5.4-5.7h19
		l0,18.7C35.5,61.3,33.1,63.3,32.2,66.1z M47.8,66.1c-0.9-2.7-3.2-4.7-6.1-5.4l0-18.7h18.9c0.6,2.8,2.7,5,5.3,6
		C63.4,56.6,56.5,63.4,47.8,66.1z M44.5,66.8c-0.5-1.2-1.5-2.1-2.7-2.6v-3.6c2.8,0.6,5.1,2.7,6.1,5.4C46.7,66.4,45.6,66.7,44.5,66.8
		z M19.4,38.6c-0.5-3-2.5-5.4-5.3-6.4c2.7-8.5,9.6-15.2,18.2-17.7c1,2.5,3.3,4.4,6,4.9l0,19.2H19.4z M15.9,38.6
		c-0.4-1.4-1.3-2.5-2.6-3.1c0.2-1.1,0.5-2.3,0.8-3.3c2.8,1,4.8,3.5,5.3,6.4H15.9z M13.9,47.6c-0.3-1.1-0.6-2.2-0.7-3.4
		c1.1-0.5,1.9-1.3,2.4-2.3h3.6C18.6,44.6,16.5,46.8,13.9,47.6z M64.2,38.6h-3.6c0.6-2.8,2.6-5.2,5.3-6.1c0.3,1.1,0.6,2.2,0.8,3.4
		C65.5,36.3,64.6,37.3,64.2,38.6z M66,47.9c-2.7-0.9-4.7-3.2-5.3-6h3.6c0.5,1.2,1.4,2.1,2.5,2.6C66.6,45.7,66.3,46.8,66,47.9z
		 M41.7,19.3v-3.5c1.1-0.4,2-1.2,2.5-2.1c1.2,0.2,2.3,0.4,3.4,0.8C46.6,16.9,44.4,18.7,41.7,19.3z M32.3,14.4
		c1.1-0.3,2.3-0.6,3.4-0.8c0.6,1,1.4,1.7,2.5,2.1v3.5C35.6,18.7,33.4,16.9,32.3,14.4z"/>
</g>
</svg>
