<?xml version="1.0" encoding="utf-8"?>
<!-- Generator: Adobe Illustrator 19.1.0, SVG Export Plug-In . SVG Version: 6.00 Build 0)  -->
<svg version="1.1" id="Слой_1" xmlns="http://www.w3.org/2000/svg" xmlns:xlink="http://www.w3.org/1999/xlink" x="0px" y="0px"
	 viewBox="0 0 80 80" style="enable-background:new 0 0 80 80;" xml:space="preserve">
<style type="text/css">
	.st0{fill:#65AACD;}
	.st1{clip-path:url(#SVGID_2_);fill:#6EBADF;}
</style>
<path class="st0" d="M72.4,11.2c0-1.9-1.6-3.5-3.5-3.5H11.2c-1.9,0-3.5,1.6-3.5,3.5v57.6c0,1.9,1.6,3.5,3.5,3.5h57.6
	c1.9,0,3.5-1.6,3.5-3.5V11.2z M68.8,75.7H11.2c-3.8,0-6.9-3.1-6.9-6.9V11.2c0-3.8,3.1-6.9,6.9-6.9h57.6c3.8,0,6.9,3.1,6.9,6.9v57.6
	C75.8,72.6,72.6,75.7,68.8,75.7z M40.5,17.5c-12.3,0-22.3,10-22.3,22.3c0,12.3,10,22.3,22.3,22.3c12.3,0,22.3-10,22.3-22.3
	C62.8,27.6,52.8,17.5,40.5,17.5z M68.8,72.3H11.2c-1.9,0-3.5-1.6-3.5-3.5V11.2c0-1.9,1.6-3.5,3.5-3.5h57.6c1.9,0,3.5,1.6,3.5,3.5
	v57.6C72.4,70.7,70.8,72.3,68.8,72.3z M41,33.1c2.4,0,4,0.8,4.9,1.1l1-3.8c-1.1-0.5-2.6-1-4.9-1.1v-3h-3.3v3.2c-3.6,0.7-5.7,3-5.7,6
	c0,3.3,2.5,5,6.1,6.2c2.5,0.8,3.6,1.6,3.6,2.9c0,1.3-1.3,2.1-3.2,2.1c-2.2,0-4.2-0.7-5.6-1.5l-1,3.9c1.3,0.7,3.5,1.4,5.7,1.5v3.2
	h3.3v-3.4c3.9-0.7,6-3.2,6-6.2c0-3-1.6-4.9-5.6-6.3c-2.9-1.1-4.1-1.8-4.1-2.9C38.1,34,38.8,33.1,41,33.1z M40.5,58.8
	c-10.4,0-18.9-8.5-18.9-18.9S30,20.9,40.5,20.9c10.4,0,18.9,8.5,18.9,18.9S50.9,58.8,40.5,58.8z"/>
<g>
	<defs>
		<rect id="SVGID_1_" y="0" width="40" height="80"/>
	</defs>
	<clipPath id="SVGID_2_">
		<use xlink:href="#SVGID_1_"  style="overflow:visible;"/>
	</clipPath>
	<path class="st1" d="M72.4,11.2c0-1.9-1.6-3.5-3.5-3.5H11.2c-1.9,0-3.5,1.6-3.5,3.5v57.6c0,1.9,1.6,3.5,3.5,3.5h57.6
		c1.9,0,3.5-1.6,3.5-3.5V11.2z M68.8,75.7H11.2c-3.8,0-6.9-3.1-6.9-6.9V11.2c0-3.8,3.1-6.9,6.9-6.9h57.6c3.8,0,6.9,3.1,6.9,6.9v57.6
		C75.8,72.6,72.6,75.7,68.8,75.7z M40.5,17.5c-12.3,0-22.3,10-22.3,22.3c0,12.3,10,22.3,22.3,22.3c12.3,0,22.3-10,22.3-22.3
		C62.8,27.6,52.8,17.5,40.5,17.5z M68.8,72.3H11.2c-1.9,0-3.5-1.6-3.5-3.5V11.2c0-1.9,1.6-3.5,3.5-3.5h57.6c1.9,0,3.5,1.6,3.5,3.5
		v57.6C72.4,70.7,70.8,72.3,68.8,72.3z M41,33.1c2.4,0,4,0.8,4.9,1.1l1-3.8c-1.1-0.5-2.6-1-4.9-1.1v-3h-3.3v3.2
		c-3.6,0.7-5.7,3-5.7,6c0,3.3,2.5,5,6.1,6.2c2.5,0.8,3.6,1.6,3.6,2.9c0,1.3-1.3,2.1-3.2,2.1c-2.2,0-4.2-0.7-5.6-1.5l-1,3.9
		c1.3,0.7,3.5,1.4,5.7,1.5v3.2h3.3v-3.4c3.9-0.7,6-3.2,6-6.2c0-3-1.6-4.9-5.6-6.3c-2.9-1.1-4.1-1.8-4.1-2.9
		C38.1,34,38.8,33.1,41,33.1z M40.5,58.8c-10.4,0-18.9-8.5-18.9-18.9S30,20.9,40.5,20.9c10.4,0,18.9,8.5,18.9,18.9
		S50.9,58.8,40.5,58.8z"/>
</g>
</svg>
