<?xml version="1.0" encoding="utf-8"?>
<!-- Generator: Adobe Illustrator 19.1.0, SVG Export Plug-In . SVG Version: 6.00 Build 0)  -->
<svg version="1.1" id="Слой_1" xmlns="http://www.w3.org/2000/svg" xmlns:xlink="http://www.w3.org/1999/xlink" x="0px" y="0px"
	 viewBox="-439 241 80 80" style="enable-background:new -439 241 80 80;" xml:space="preserve">
<style type="text/css">
	.st0{fill:#66AACD;}
	.st1{clip-path:url(#SVGID_2_);fill:#6FBAE0;}
</style>
<path class="st0" d="M-370.6,285.7h6.5c0.9,0,1.7-0.8,1.7-1.7s-0.8-1.7-1.7-1.7h-33.1v-36.6c0-0.9-0.8-1.7-1.7-1.7
	c-0.9,0-1.7,0.8-1.7,1.7v36.6h-33.1c-0.9,0-1.7,0.8-1.7,1.7s0.8,1.7,1.7,1.7h6.4l-8,30.2c-0.1,0.5,0,1.1,0.3,1.5
	c0.3,0.4,0.8,0.7,1.4,0.7h6.9l1.1-3.4l2.6-7.9c0.3-0.9,1.2-1.4,2.1-1.1c0.9,0.3,1.4,1.2,1.1,2.1l-2.2,6.9l-1.1,3.4h22.7v-3.4v-17
	c0-0.9,0.8-1.7,1.7-1.7c0.9,0,1.7,0.8,1.7,1.7v17v3.4h16.4l-0.5-3.4l-0.4-2.6c-0.1-0.9,0.5-1.8,1.5-1.9c0.9-0.1,1.8,0.5,1.9,1.5
	l0.5,3.1l0.5,3.4h3.3l-0.7-3.4l-1.7-8.7c-0.2-0.9,0.4-1.8,1.3-2c0.9-0.2,1.8,0.4,2,1.3l1.9,9.4l0.7,3.4h6.4c0.5,0,1-0.2,1.4-0.7
	c0.3-0.4,0.4-1,0.3-1.5L-370.6,285.7z"/>
<g>
	<defs>
		<rect id="SVGID_1_" x="-439" y="241" width="40" height="80"/>
	</defs>
	<clipPath id="SVGID_2_">
		<use xlink:href="#SVGID_1_"  style="overflow:visible;"/>
	</clipPath>
	<path class="st1" d="M-370.6,285.7h6.5c0.9,0,1.7-0.8,1.7-1.7s-0.8-1.7-1.7-1.7h-33.1v-36.6c0-0.9-0.8-1.7-1.7-1.7
		c-0.9,0-1.7,0.8-1.7,1.7v36.6h-33.1c-0.9,0-1.7,0.8-1.7,1.7s0.8,1.7,1.7,1.7h6.4l-8,30.2c-0.1,0.5,0,1.1,0.3,1.5
		c0.3,0.4,0.8,0.7,1.4,0.7h6.9l1.1-3.4l2.6-7.9c0.3-0.9,1.2-1.4,2.1-1.1c0.9,0.3,1.4,1.2,1.1,2.1l-2.2,6.9l-1.1,3.4h22.7v-3.4v-17
		c0-0.9,0.8-1.7,1.7-1.7c0.9,0,1.7,0.8,1.7,1.7v17v3.4h16.4l-0.5-3.4l-0.4-2.6c-0.1-0.9,0.5-1.8,1.5-1.9c0.9-0.1,1.8,0.5,1.9,1.5
		l0.5,3.1l0.5,3.4h3.3l-0.7-3.4l-1.7-8.7c-0.2-0.9,0.4-1.8,1.3-2c0.9-0.2,1.8,0.4,2,1.3l1.9,9.4l0.7,3.4h6.4c0.5,0,1-0.2,1.4-0.7
		c0.3-0.4,0.4-1,0.3-1.5L-370.6,285.7z"/>
</g>
</svg>
