<?xml version="1.0" encoding="utf-8"?>
<!-- Generator: Adobe Illustrator 19.1.0, SVG Export Plug-In . SVG Version: 6.00 Build 0)  -->
<svg version="1.1" id="Слой_1" xmlns="http://www.w3.org/2000/svg" xmlns:xlink="http://www.w3.org/1999/xlink" x="0px" y="0px"
	 viewBox="-439 241 80 80" style="enable-background:new -439 241 80 80;" xml:space="preserve">
<style type="text/css">
	.st0{fill:#65AACD;}
	.st1{clip-path:url(#SVGID_2_);fill:#6EBADF;}
</style>
<path class="st0" d="M-364.8,262.6c-0.1,0-0.2,0-0.3,0l-33.8-6.6c0.1,0,0.2,0,0.2,0c0.7,0,1.4-0.5,1.6-1.2l0.5-1.8l32.1,6.3
	c0.9,0.2,1.5,1.1,1.3,2C-363.3,262-364,262.6-364.8,262.6z M-395.7,249.7l-0.9,3.2l-3.3-0.7l1-3.5c0.3-0.9,1.2-1.4,2.1-1.2
	C-395.9,247.9-395.4,248.8-395.7,249.7z M-397.1,254.7c-0.2,0.7-0.9,1.2-1.6,1.2c-0.1,0-0.2,0-0.2,0c-0.1,0-0.2,0-0.2,0
	c-0.9-0.3-1.4-1.2-1.2-2.1l0.4-1.5l3.3,0.7L-397.1,254.7z M-399.2,255.9l-33.8-6.6c-0.9-0.2-1.5-1.1-1.3-2c0.2-0.9,1.1-1.5,2-1.3
	l32.4,6.4l-0.4,1.5C-400.6,254.7-400.1,255.6-399.2,255.9z M-430.2,269.7l15.7,44.2h31.5l15.7-44.2H-430.2z M-363.2,268.5l-17,47.5
	c-0.2,0.7-0.9,1.1-1.6,1.1h-33.9c-0.7,0-1.4-0.5-1.6-1.1l-17-47.5c-0.2-0.5-0.1-1.1,0.2-1.5c0.3-0.5,0.8-0.7,1.4-0.7h67.8
	c0.5,0,1.1,0.3,1.4,0.7C-363.1,267.4-363,268-363.2,268.5z M-382.1,278.8c-0.9-0.3-1.8,0.2-2.1,1.1l-6.8,21.8
	c-0.3,0.9,0.2,1.8,1.1,2.1c0.2,0.1,0.3,0.1,0.5,0.1c0.7,0,1.4-0.5,1.6-1.2l6.8-21.8C-380.7,280-381.2,279.1-382.1,278.8z
	 M-397,279.8c0-0.9-0.8-1.7-1.7-1.7c-0.9,0-1.7,0.8-1.7,1.7v22.1c0,0.9,0.8,1.7,1.7,1.7c0.9,0,1.7-0.8,1.7-1.7V279.8z M-406.4,301.7
	l-6.8-21.8c-0.3-0.9-1.2-1.4-2.1-1.1c-0.9,0.3-1.4,1.2-1.1,2.1l6.8,21.8c0.2,0.7,0.9,1.2,1.6,1.2c0.2,0,0.3,0,0.5-0.1
	C-406.7,303.5-406.2,302.6-406.4,301.7z M-383,313.8h-31.5l-15.7-44.2h63L-383,313.8z"/>
<g>
	<defs>
		<rect id="SVGID_1_" x="-439" y="241" width="40" height="80"/>
	</defs>
	<clipPath id="SVGID_2_">
		<use xlink:href="#SVGID_1_"  style="overflow:visible;"/>
	</clipPath>
	<path class="st1" d="M-364.8,262.6c-0.1,0-0.2,0-0.3,0l-33.8-6.6c0.1,0,0.2,0,0.2,0c0.7,0,1.4-0.5,1.6-1.2l0.5-1.8l32.1,6.3
		c0.9,0.2,1.5,1.1,1.3,2C-363.3,262-364,262.6-364.8,262.6z M-395.7,249.7l-0.9,3.2l-3.3-0.7l1-3.5c0.3-0.9,1.2-1.4,2.1-1.2
		C-395.9,247.9-395.4,248.8-395.7,249.7z M-397.1,254.7c-0.2,0.7-0.9,1.2-1.6,1.2c-0.1,0-0.2,0-0.2,0c-0.1,0-0.2,0-0.2,0
		c-0.9-0.3-1.4-1.2-1.2-2.1l0.4-1.5l3.3,0.7L-397.1,254.7z M-399.2,255.9l-33.8-6.6c-0.9-0.2-1.5-1.1-1.3-2c0.2-0.9,1.1-1.5,2-1.3
		l32.4,6.4l-0.4,1.5C-400.6,254.7-400.1,255.6-399.2,255.9z M-430.2,269.7l15.7,44.2h31.5l15.7-44.2H-430.2z M-363.2,268.5l-17,47.5
		c-0.2,0.7-0.9,1.1-1.6,1.1h-33.9c-0.7,0-1.4-0.5-1.6-1.1l-17-47.5c-0.2-0.5-0.1-1.1,0.2-1.5c0.3-0.5,0.8-0.7,1.4-0.7h67.8
		c0.5,0,1.1,0.3,1.4,0.7C-363.1,267.4-363,268-363.2,268.5z M-382.1,278.8c-0.9-0.3-1.8,0.2-2.1,1.1l-6.8,21.8
		c-0.3,0.9,0.2,1.8,1.1,2.1c0.2,0.1,0.3,0.1,0.5,0.1c0.7,0,1.4-0.5,1.6-1.2l6.8-21.8C-380.7,280-381.2,279.1-382.1,278.8z
		 M-397,279.8c0-0.9-0.8-1.7-1.7-1.7c-0.9,0-1.7,0.8-1.7,1.7v22.1c0,0.9,0.8,1.7,1.7,1.7c0.9,0,1.7-0.8,1.7-1.7V279.8z
		 M-406.4,301.7l-6.8-21.8c-0.3-0.9-1.2-1.4-2.1-1.1c-0.9,0.3-1.4,1.2-1.1,2.1l6.8,21.8c0.2,0.7,0.9,1.2,1.6,1.2
		c0.2,0,0.3,0,0.5-0.1C-406.7,303.5-406.2,302.6-406.4,301.7z M-383,313.8h-31.5l-15.7-44.2h63L-383,313.8z"/>
</g>
</svg>
