<?xml version="1.0" encoding="utf-8"?>
<!-- Generator: Adobe Illustrator 19.1.0, SVG Export Plug-In . SVG Version: 6.00 Build 0)  -->
<svg version="1.1" id="Слой_1" xmlns="http://www.w3.org/2000/svg" xmlns:xlink="http://www.w3.org/1999/xlink" x="0px" y="0px"
	 viewBox="-439 241 80 80" style="enable-background:new -439 241 80 80;" xml:space="preserve">
<style type="text/css">
	.st0{fill:#66AACD;}
	.st1{clip-path:url(#SVGID_2_);}
	.st2{fill:#6FBAE0;}
</style>
<g>
	<path class="st0" d="M-382.5,253c0.4,0.2,0.7,0.4,1.1,0.7C-381.8,253.4-382.2,253.2-382.5,253z"/>
	<path class="st0" d="M-379.1,251.1c0.2,0.1,0.4,0.2,0.5,0.4C-378.7,251.3-378.9,251.2-379.1,251.1z"/>
	<path class="st0" d="M-379.4,250.9c0.1,0.1,0.2,0.1,0.3,0.2C-379.2,251-379.3,251-379.4,250.9z"/>
	<path class="st0" d="M-428.5,301.6c0.2,0.3,0.4,0.5,0.6,0.8c-0.1-0.2-0.3-0.4-0.4-0.6C-428.4,301.7-428.4,301.7-428.5,301.6z"/>
	<path class="st0" d="M-373.6,255.6c-1.5-1.5-3.1-2.8-4.7-4c-0.1,0-0.1-0.1-0.2-0.1c0,0,0.1,0.1,0.1,0.1c-0.3-0.2-0.7-0.5-1-0.7
		c0,0,0,0-0.1,0c0,0,0,0,0,0c-0.1-0.1-0.2-0.1-0.3-0.2c-0.2-0.1-0.3-0.2-0.5-0.3c-0.3-0.2-0.5-0.3-0.8-0.5c-0.9-0.5-1.7-0.9-2.3-1.2
		c-0.5-0.3-0.9-0.4-1.1-0.5c-9.2-4.1-19.8-4.1-29.1-0.1c-4,1.7-7.7,4.2-11,7.5c-3.1,3.1-5.5,6.6-7.2,10.3c-0.1,0.2-0.2,0.4-0.3,0.6
		c-4.1,9.3-4,20,0.1,29.2c0.1,0.2,0.2,0.6,0.5,1c0.3,0.6,0.7,1.4,1.2,2.3c0.5,0.8,1,1.6,1.7,2.6c0,0,0,0,0,0
		c0.1,0.1,0.1,0.2,0.2,0.2c0.1,0.2,0.3,0.4,0.4,0.6c0,0,0,0,0,0c1,1.4,2.2,2.7,3.4,4c14,14,36.8,14,50.9,0
		C-359.5,292.4-359.5,269.6-373.6,255.6z M-384.1,252.1c0.6,0.3,1.1,0.6,1.6,0.9c0,0,0,0-0.1,0c0.5,0.3,1,0.6,1.6,1
		c-0.1-0.1-0.3-0.2-0.4-0.3c3.4,2.2,8.2,6.2,11.4,12.7l-15.1,7.8l-0.1,0c-0.4-0.9-1.1-2-2-3.1c-1.4-1.7-3.3-3.4-6-4.4l8.7-14.7
		C-384.4,251.9-384.3,252-384.1,252.1z M-368.6,262c0.2,0.3,0.3,0.6,0.5,0.9C-368.2,262.5-368.4,262.2-368.6,262z M-367.7,263.4
		c0.2,0.3,0.3,0.6,0.5,1C-367.4,264-367.6,263.7-367.7,263.4z M-402.5,292.6c-1.6-0.5-3.1-1.3-4.4-2.4c-0.1-0.1-0.1-0.1-0.2-0.2
		c-1.4-1.2-2.9-3-3.5-5.5c0-0.1,0-0.1,0-0.2c-0.1-0.2-0.1-0.4-0.1-0.6c-0.9-3.9,0.2-8.2,3.2-11.2c3.1-3.1,7.4-4.1,11.3-3.2
		c0.2,0,0.3,0.1,0.5,0.1c0.1,0,0.1,0,0.2,0c2.8,0.7,4.7,2.4,5.9,4c0,0,0,0.1,0.1,0.1c1,1.2,1.7,2.6,2.1,4c0.6,1.9,0.7,3.9,0.3,5.8
		c-0.4,2.3-1.5,4.5-3.3,6.2c-1.5,1.5-3.3,2.5-5.2,3.1C-397.9,293.3-400.3,293.2-402.5,292.6z M-380.6,254.2c0.4,0.3,0.8,0.6,1.2,0.9
		C-379.8,254.8-380.2,254.5-380.6,254.2z M-378.6,255.7c0.3,0.2,0.6,0.5,0.9,0.7C-378,256.2-378.3,255.9-378.6,255.7z M-428.1,295.5
		l14.7-8.7c1,2.7,2.7,4.7,4.4,6c1.1,0.9,2.2,1.5,3.1,2l0,0.1l-7.8,15.1C-422.4,305.6-426.7,298.4-428.1,295.5z M-392.2,294.8
		c1.2-0.6,2.8-1.6,4.3-3.1c1.4-1.4,2.5-3.1,3.2-4.9l0,0l14.7,8.7c-0.9,1.8-2.8,5.1-6.1,8.4c-2.5,2.5-5.3,4.5-8.3,6L-392.2,294.8
		L-392.2,294.8z M-367,264.8c0.3,0.5,0.5,1,0.7,1.6C-366.5,265.9-366.7,265.4-367,264.8z M-372.6,256.7c-0.3-0.3-0.6-0.7-1-1
		C-373.2,256-372.9,256.3-372.6,256.7z M-368.9,261.4c-0.2-0.3-0.3-0.5-0.5-0.8C-369.3,260.9-369.1,261.1-368.9,261.4z
		 M-369.8,260.1c-0.2-0.3-0.4-0.5-0.6-0.8C-370.2,259.6-370,259.8-369.8,260.1z M-370.7,258.9c-0.2-0.3-0.4-0.5-0.6-0.8
		C-371.1,258.4-370.9,258.6-370.7,258.9z M-371.6,257.8c-0.3-0.3-0.5-0.6-0.8-0.9C-372.2,257.1-371.9,257.4-371.6,257.8z
		 M-376.4,253.1c0.2,0.2,0.4,0.3,0.6,0.5C-376,253.4-376.2,253.3-376.4,253.1z M-375.4,253.9c0.2,0.2,0.4,0.4,0.6,0.6
		C-375,254.3-375.2,254.1-375.4,253.9z M-374.5,254.8c0.3,0.2,0.5,0.5,0.8,0.7C-374,255.2-374.2,255-374.5,254.8z M-377.6,252.1
		c-0.2-0.1-0.4-0.3-0.5-0.4C-378,251.8-377.8,252-377.6,252.1z M-376.7,252.8c-0.2-0.2-0.4-0.3-0.6-0.4
		C-377.1,252.5-376.9,252.7-376.7,252.8z M-422.1,258c3.3-3.3,6.7-5.2,8.5-6.1l0,0l8.7,14.7c-1.8,0.7-3.5,1.8-4.9,3.2
		c-1.5,1.5-2.5,3.1-3.1,4.3l-15.1-7.8l0,0C-426.5,263.3-424.5,260.5-422.1,258z M-425.3,305.5c0.3,0.3,0.6,0.6,0.9,0.9
		C-424.7,306.1-425,305.8-425.3,305.5z M-427.7,302.7c0.2,0.2,0.3,0.4,0.5,0.6C-427.3,303.1-427.5,302.9-427.7,302.7z M-426.9,303.6
		c0.2,0.2,0.3,0.4,0.5,0.6C-426.6,304-426.8,303.8-426.9,303.6z M-426.1,304.5c0.2,0.2,0.4,0.5,0.7,0.7
		C-425.7,305-425.9,304.8-426.1,304.5z M-421.2,309.2c-0.3-0.2-0.6-0.4-0.8-0.7C-421.8,308.8-421.5,309-421.2,309.2z M-422.4,308.2
		c-0.2-0.2-0.5-0.4-0.7-0.6C-422.9,307.8-422.6,308-422.4,308.2z M-423.5,307.3c-0.2-0.2-0.5-0.5-0.7-0.7
		C-423.9,306.9-423.7,307.1-423.5,307.3z M-415.1,313c0.5,0.2,1,0.5,1.5,0.7C-414.1,313.5-414.6,313.3-415.1,313z M-420.9,309.5
		c0.4,0.3,0.8,0.6,1.2,0.9C-420.1,310-420.5,309.8-420.9,309.5z M-419.5,310.5c0.3,0.2,0.7,0.5,1.1,0.7
		C-418.8,311-419.1,310.7-419.5,310.5z M-418,311.4c0.3,0.2,0.6,0.4,0.9,0.6C-417.4,311.8-417.7,311.6-418,311.4z M-416.6,312.3
		c0.3,0.2,0.7,0.4,1,0.5C-415.9,312.6-416.3,312.5-416.6,312.3z"/>
	<path class="st0" d="M-379.4,250.9C-379.4,250.9-379.4,250.9-379.4,250.9C-379.4,250.9-379.4,250.9-379.4,250.9
		C-379.4,250.9-379.4,250.9-379.4,250.9z"/>
</g>
<g>
	<defs>
		<rect id="SVGID_1_" x="-439" y="241" width="40" height="80"/>
	</defs>
	<clipPath id="SVGID_2_">
		<use xlink:href="#SVGID_1_"  style="overflow:visible;"/>
	</clipPath>
	<g class="st1">
		<path class="st2" d="M-379.4,250.9c0.1,0.1,0.2,0.1,0.3,0.2C-379.2,251-379.3,251-379.4,250.9z"/>
		<path class="st2" d="M-379.1,251.1c0.2,0.1,0.4,0.2,0.5,0.4C-378.7,251.3-378.9,251.2-379.1,251.1z"/>
		<path class="st2" d="M-382.5,253c0.4,0.2,0.7,0.4,1.1,0.7C-381.8,253.4-382.2,253.2-382.5,253z"/>
		<path class="st2" d="M-428.5,301.6c0.2,0.3,0.4,0.5,0.6,0.8c-0.1-0.2-0.3-0.4-0.4-0.6C-428.4,301.7-428.4,301.7-428.5,301.6z"/>
		<path class="st2" d="M-379.4,250.9C-379.4,250.9-379.4,250.9-379.4,250.9C-379.4,250.9-379.4,250.9-379.4,250.9
			C-379.4,250.9-379.4,250.9-379.4,250.9z"/>
		<path class="st2" d="M-373.6,255.6c-1.5-1.5-3.1-2.8-4.7-4c-0.1,0-0.1-0.1-0.2-0.1c0,0,0.1,0.1,0.1,0.1c-0.3-0.2-0.7-0.5-1-0.7
			c0,0,0,0-0.1,0c0,0,0,0,0,0c-0.1-0.1-0.2-0.1-0.3-0.2c-0.2-0.1-0.3-0.2-0.5-0.3c-0.3-0.2-0.5-0.3-0.8-0.5
			c-0.9-0.5-1.7-0.9-2.3-1.2c-0.5-0.3-0.9-0.4-1.1-0.5c-9.2-4.1-19.8-4.1-29.1-0.1c-4,1.7-7.7,4.2-11,7.5c-3.1,3.1-5.5,6.6-7.2,10.3
			c-0.1,0.2-0.2,0.4-0.3,0.6c-4.1,9.3-4,20,0.1,29.2c0.1,0.2,0.2,0.6,0.5,1c0.3,0.6,0.7,1.4,1.2,2.3c0.5,0.8,1,1.6,1.7,2.6
			c0,0,0,0,0,0c0.1,0.1,0.1,0.2,0.2,0.2c0.1,0.2,0.3,0.4,0.4,0.6c0,0,0,0,0,0c1,1.4,2.2,2.7,3.4,4c14,14,36.8,14,50.9,0
			C-359.5,292.4-359.5,269.6-373.6,255.6z M-384.1,252.1c0.6,0.3,1.1,0.6,1.6,0.9c0,0,0,0-0.1,0c0.5,0.3,1,0.6,1.6,1
			c-0.1-0.1-0.3-0.2-0.4-0.3c3.4,2.2,8.2,6.2,11.4,12.7l-15.1,7.8l-0.1,0c-0.4-0.9-1.1-2-2-3.1c-1.4-1.7-3.3-3.4-6-4.4l8.7-14.7
			C-384.4,251.9-384.3,252-384.1,252.1z M-368.6,262c0.2,0.3,0.3,0.6,0.5,0.9C-368.2,262.5-368.4,262.2-368.6,262z M-367.7,263.4
			c0.2,0.3,0.3,0.6,0.5,1C-367.4,264-367.6,263.7-367.7,263.4z M-402.5,292.6c-1.6-0.5-3.1-1.3-4.4-2.4c-0.1-0.1-0.1-0.1-0.2-0.2
			c-1.4-1.2-2.9-3-3.5-5.5c0-0.1,0-0.1,0-0.2c-0.1-0.2-0.1-0.4-0.1-0.6c-0.9-3.9,0.2-8.2,3.2-11.2c3.1-3.1,7.4-4.1,11.3-3.2
			c0.2,0,0.3,0.1,0.5,0.1c0.1,0,0.1,0,0.2,0c2.8,0.7,4.7,2.4,5.9,4c0,0,0,0.1,0.1,0.1c1,1.2,1.7,2.6,2.1,4c0.6,1.9,0.7,3.9,0.3,5.8
			c-0.4,2.3-1.5,4.5-3.3,6.2c-1.5,1.5-3.3,2.5-5.2,3.1C-397.9,293.3-400.3,293.2-402.5,292.6z M-380.6,254.2
			c0.4,0.3,0.8,0.6,1.2,0.9C-379.8,254.8-380.2,254.5-380.6,254.2z M-378.6,255.7c0.3,0.2,0.6,0.5,0.9,0.7
			C-378,256.2-378.3,255.9-378.6,255.7z M-428.1,295.5l14.7-8.7c1,2.7,2.7,4.7,4.4,6c1.1,0.9,2.2,1.5,3.1,2l0,0.1l-7.8,15.1
			C-422.4,305.6-426.7,298.4-428.1,295.5z M-392.2,294.8c1.2-0.6,2.8-1.6,4.3-3.1c1.4-1.4,2.5-3.1,3.2-4.9l0,0l14.7,8.7
			c-0.9,1.8-2.8,5.1-6.1,8.4c-2.5,2.5-5.3,4.5-8.3,6L-392.2,294.8L-392.2,294.8z M-367,264.8c0.3,0.5,0.5,1,0.7,1.6
			C-366.5,265.9-366.7,265.4-367,264.8z M-372.6,256.7c-0.3-0.3-0.6-0.7-1-1C-373.2,256-372.9,256.3-372.6,256.7z M-368.9,261.4
			c-0.2-0.3-0.3-0.5-0.5-0.8C-369.3,260.9-369.1,261.1-368.9,261.4z M-369.8,260.1c-0.2-0.3-0.4-0.5-0.6-0.8
			C-370.2,259.6-370,259.8-369.8,260.1z M-370.7,258.9c-0.2-0.3-0.4-0.5-0.6-0.8C-371.1,258.4-370.9,258.6-370.7,258.9z
			 M-371.6,257.8c-0.3-0.3-0.5-0.6-0.8-0.9C-372.2,257.1-371.9,257.4-371.6,257.8z M-376.4,253.1c0.2,0.2,0.4,0.3,0.6,0.5
			C-376,253.4-376.2,253.3-376.4,253.1z M-375.4,253.9c0.2,0.2,0.4,0.4,0.6,0.6C-375,254.3-375.2,254.1-375.4,253.9z M-374.5,254.8
			c0.3,0.2,0.5,0.5,0.8,0.7C-374,255.2-374.2,255-374.5,254.8z M-377.6,252.1c-0.2-0.1-0.4-0.3-0.5-0.4
			C-378,251.8-377.8,252-377.6,252.1z M-376.7,252.8c-0.2-0.2-0.4-0.3-0.6-0.4C-377.1,252.5-376.9,252.7-376.7,252.8z M-422.1,258
			c3.3-3.3,6.7-5.2,8.5-6.1l0,0l8.7,14.7c-1.8,0.7-3.5,1.8-4.9,3.2c-1.5,1.5-2.5,3.1-3.1,4.3l-15.1-7.8l0,0
			C-426.5,263.3-424.5,260.5-422.1,258z M-425.3,305.5c0.3,0.3,0.6,0.6,0.9,0.9C-424.7,306.1-425,305.8-425.3,305.5z M-427.7,302.7
			c0.2,0.2,0.3,0.4,0.5,0.6C-427.3,303.1-427.5,302.9-427.7,302.7z M-426.9,303.6c0.2,0.2,0.3,0.4,0.5,0.6
			C-426.6,304-426.8,303.8-426.9,303.6z M-426.1,304.5c0.2,0.2,0.4,0.5,0.7,0.7C-425.7,305-425.9,304.8-426.1,304.5z M-421.2,309.2
			c-0.3-0.2-0.6-0.4-0.8-0.7C-421.8,308.8-421.5,309-421.2,309.2z M-422.4,308.2c-0.2-0.2-0.5-0.4-0.7-0.6
			C-422.9,307.8-422.6,308-422.4,308.2z M-423.5,307.3c-0.2-0.2-0.5-0.5-0.7-0.7C-423.9,306.9-423.7,307.1-423.5,307.3z M-415.1,313
			c0.5,0.2,1,0.5,1.5,0.7C-414.1,313.5-414.6,313.3-415.1,313z M-420.9,309.5c0.4,0.3,0.8,0.6,1.2,0.9
			C-420.1,310-420.5,309.8-420.9,309.5z M-419.5,310.5c0.3,0.2,0.7,0.5,1.1,0.7C-418.8,311-419.1,310.7-419.5,310.5z M-418,311.4
			c0.3,0.2,0.6,0.4,0.9,0.6C-417.4,311.8-417.7,311.6-418,311.4z M-416.6,312.3c0.3,0.2,0.7,0.4,1,0.5
			C-415.9,312.6-416.3,312.5-416.6,312.3z"/>
	</g>
</g>
</svg>
