<?xml version="1.0" encoding="utf-8"?>
<!-- Generator: Adobe Illustrator 19.1.0, SVG Export Plug-In . SVG Version: 6.00 Build 0)  -->
<svg version="1.1" id="Слой_1" xmlns="http://www.w3.org/2000/svg" xmlns:xlink="http://www.w3.org/1999/xlink" x="0px" y="0px"
	 viewBox="-439 241 80 80" style="enable-background:new -439 241 80 80;" xml:space="preserve">
<style type="text/css">
	.st0{fill:#66AACD;}
	.st1{clip-path:url(#SVGID_2_);fill:#6FBAE0;}
</style>
<path class="st0" d="M-399,245.3c-19.7,0-35.8,16-35.8,35.7c0,19.7,16,35.7,35.8,35.7s35.8-16,35.8-35.7
	C-363.2,261.3-379.3,245.3-399,245.3z M-399,309.1c-0.9,0-1.7-0.8-1.7-1.7c0-0.9,0.8-1.7,1.7-1.7c13.6,0,24.7-11.1,24.7-24.7
	c0-0.9,0.8-1.7,1.7-1.7c0.9,0,1.7,0.8,1.7,1.7C-370.8,296.5-383.5,309.1-399,309.1z M-425.4,282.7c-0.9,0-1.7-0.8-1.7-1.7
	c0-15.5,12.6-28.1,28.2-28.1c0.9,0,1.7,0.8,1.7,1.7c0,0.9-0.8,1.7-1.7,1.7c-13.6,0-24.7,11.1-24.7,24.7
	C-423.7,281.9-424.5,282.7-425.4,282.7z M-399,298.9c9.9,0,17.9-8,17.9-17.9c0-0.9,0.8-1.7,1.7-1.7c0.9,0,1.7,0.8,1.7,1.7
	c0,11.8-9.6,21.3-21.4,21.3c-0.9,0-1.7-0.8-1.7-1.7C-400.7,299.7-399.9,298.9-399,298.9z M-405.3,281.1c0-3.4,2.8-6.1,6.2-6.1
	c3.4,0,6.2,2.7,6.2,6.1c0,3.4-2.8,6.1-6.2,6.1C-402.5,287.3-405.3,284.5-405.3,281.1z M-399,259.7c0.9,0,1.7,0.8,1.7,1.7
	c0,0.9-0.8,1.7-1.7,1.7c-9.9,0-17.9,8-17.9,17.9c0,0.9-0.8,1.7-1.7,1.7c-0.9,0-1.7-0.8-1.7-1.7C-420.3,269.2-410.8,259.7-399,259.7z
	"/>
<g>
	<defs>
		<rect id="SVGID_1_" x="-439" y="241" width="40" height="80"/>
	</defs>
	<clipPath id="SVGID_2_">
		<use xlink:href="#SVGID_1_"  style="overflow:visible;"/>
	</clipPath>
	<path class="st1" d="M-399,245.3c-19.7,0-35.8,16-35.8,35.7c0,19.7,16,35.7,35.8,35.7s35.8-16,35.8-35.7
		C-363.2,261.3-379.3,245.3-399,245.3z M-399,309.1c-0.9,0-1.7-0.8-1.7-1.7c0-0.9,0.8-1.7,1.7-1.7c13.6,0,24.7-11.1,24.7-24.7
		c0-0.9,0.8-1.7,1.7-1.7c0.9,0,1.7,0.8,1.7,1.7C-370.8,296.5-383.5,309.1-399,309.1z M-425.4,282.7c-0.9,0-1.7-0.8-1.7-1.7
		c0-15.5,12.6-28.1,28.2-28.1c0.9,0,1.7,0.8,1.7,1.7c0,0.9-0.8,1.7-1.7,1.7c-13.6,0-24.7,11.1-24.7,24.7
		C-423.7,281.9-424.5,282.7-425.4,282.7z M-399,298.9c9.9,0,17.9-8,17.9-17.9c0-0.9,0.8-1.7,1.7-1.7c0.9,0,1.7,0.8,1.7,1.7
		c0,11.8-9.6,21.3-21.4,21.3c-0.9,0-1.7-0.8-1.7-1.7C-400.7,299.7-399.9,298.9-399,298.9z M-405.3,281.1c0-3.4,2.8-6.1,6.2-6.1
		c3.4,0,6.2,2.7,6.2,6.1c0,3.4-2.8,6.1-6.2,6.1C-402.5,287.3-405.3,284.5-405.3,281.1z M-399,259.7c0.9,0,1.7,0.8,1.7,1.7
		c0,0.9-0.8,1.7-1.7,1.7c-9.9,0-17.9,8-17.9,17.9c0,0.9-0.8,1.7-1.7,1.7c-0.9,0-1.7-0.8-1.7-1.7C-420.3,269.2-410.8,259.7-399,259.7
		z"/>
</g>
</svg>
