<?xml version="1.0" encoding="utf-8"?>
<!-- Generator: Adobe Illustrator 19.1.0, SVG Export Plug-In . SVG Version: 6.00 Build 0)  -->
<svg version="1.1" id="Слой_1" xmlns="http://www.w3.org/2000/svg" xmlns:xlink="http://www.w3.org/1999/xlink" x="0px" y="0px"
	 viewBox="-439 241 80 80" style="enable-background:new -439 241 80 80;" xml:space="preserve">
<style type="text/css">
	.st0{fill:#66AACD;}
	.st1{clip-path:url(#SVGID_2_);}
	.st2{fill:#6FBAE0;}
</style>
<g>
	<path class="st0" d="M-414.7,279.3h31.5c0.9,0,1.7-0.7,1.7-1.6l1.7-30.6c0-0.5-0.1-0.9-0.5-1.3c-0.3-0.3-0.8-0.5-1.2-0.5h-34.9
		c-0.5,0-0.9,0.2-1.2,0.5c-0.3,0.3-0.5,0.8-0.5,1.3l1.7,30.6C-416.4,278.6-415.7,279.3-414.7,279.3z"/>
	<path class="st0" d="M-364.9,264h-4.5c-0.9,0-1.7,0.8-1.7,1.7c0,8.1-3.5,15.4-9.1,20.4v-2.5c0-0.9-0.8-1.7-1.7-1.7h-34.9
		c-0.9,0-1.7,0.8-1.7,1.7v1c-4.7-5-7.7-11.6-7.7-18.8c0-0.9-0.8-1.7-1.7-1.7h-5.1c-0.9,0-1.7,0.8-1.7,1.7c0,0.9,0.8,1.7,1.7,1.7h3.5
		c0.9,14.8,12.7,27.2,27.2,29c-6.9,0.8-12.3,4.2-15.1,9.3c-0.1,0-0.3,0-0.5,0c-3,0-5.5,2.5-5.5,5.5s2.5,5.5,5.5,5.5
		c3.1,0,5.5-2.5,5.5-5.5c0-1.7-0.7-3.2-1.9-4.2c2.5-4.3,7.4-7,13.6-7.4v6.3c-2.3,0.7-4,2.8-4,5.3c0,3,2.5,5.5,5.5,5.5
		c3.1,0,5.5-2.5,5.5-5.5c0-2.4-1.5-4.4-3.7-5.2v-6.4c6.1,0.4,11,3,13.5,7.2c-1.3,1-2.1,2.6-2.1,4.3c0,3,2.5,5.5,5.5,5.5
		c3.1,0,5.5-2.5,5.5-5.5s-2.5-5.5-5.5-5.5c0,0-0.1,0-0.2,0c-2.7-5.1-8-8.4-14.8-9.3c14.9-1.6,26.7-13.9,27.5-29h2.9
		c0.9,0,1.7-0.8,1.7-1.7C-363.2,264.8-364,264-364.9,264z M-417.9,313.3c-1.2,0-2.1-1-2.1-2.1c0-1.2,1-2.1,2.1-2.1
		c0.3,0,0.5,0,0.7,0.1c0.8,0.3,1.4,1.1,1.4,2C-415.7,312.4-416.7,313.3-417.9,313.3z M-378.3,311.2c0,1.2-1,2.1-2.1,2.1
		c-1.2,0-2.1-1-2.1-2.1c0-1,0.6-1.8,1.5-2h0c0.2-0.1,0.4-0.1,0.6-0.1C-379.2,309.1-378.3,310-378.3,311.2z M-397,311.2
		c0,1.2-1,2.1-2.1,2.1c-1.2,0-2.1-1-2.1-2.1c0-1.2,1-2.1,2.1-2.1C-398,309.1-397,310-397,311.2z"/>
</g>
<g>
	<defs>
		<rect id="SVGID_1_" x="-439" y="241" width="40" height="80"/>
	</defs>
	<clipPath id="SVGID_2_">
		<use xlink:href="#SVGID_1_"  style="overflow:visible;"/>
	</clipPath>
	<g class="st1">
		<path class="st2" d="M-364.9,264h-4.5c-0.9,0-1.7,0.8-1.7,1.7c0,8.1-3.5,15.4-9.1,20.4v-2.5c0-0.9-0.8-1.7-1.7-1.7h-34.9
			c-0.9,0-1.7,0.8-1.7,1.7v1c-4.7-5-7.7-11.6-7.7-18.8c0-0.9-0.8-1.7-1.7-1.7h-5.1c-0.9,0-1.7,0.8-1.7,1.7c0,0.9,0.8,1.7,1.7,1.7
			h3.5c0.9,14.8,12.7,27.2,27.2,29c-6.9,0.8-12.3,4.2-15.1,9.3c-0.1,0-0.3,0-0.5,0c-3,0-5.5,2.5-5.5,5.5s2.5,5.5,5.5,5.5
			c3.1,0,5.5-2.5,5.5-5.5c0-1.7-0.7-3.2-1.9-4.2c2.5-4.3,7.4-7,13.6-7.4v6.3c-2.3,0.7-4,2.8-4,5.3c0,3,2.5,5.5,5.5,5.5
			c3.1,0,5.5-2.5,5.5-5.5c0-2.4-1.5-4.4-3.7-5.2v-6.4c6.1,0.4,11,3,13.5,7.2c-1.3,1-2.1,2.6-2.1,4.3c0,3,2.5,5.5,5.5,5.5
			c3.1,0,5.5-2.5,5.5-5.5s-2.5-5.5-5.5-5.5c0,0-0.1,0-0.2,0c-2.7-5.1-8-8.4-14.8-9.3c14.9-1.6,26.7-13.9,27.5-29h2.9
			c0.9,0,1.7-0.8,1.7-1.7C-363.2,264.8-364,264-364.9,264z M-417.9,313.3c-1.2,0-2.1-1-2.1-2.1c0-1.2,1-2.1,2.1-2.1
			c0.3,0,0.5,0,0.7,0.1c0.8,0.3,1.4,1.1,1.4,2C-415.7,312.4-416.7,313.3-417.9,313.3z M-378.3,311.2c0,1.2-1,2.1-2.1,2.1
			c-1.2,0-2.1-1-2.1-2.1c0-1,0.6-1.8,1.5-2h0c0.2-0.1,0.4-0.1,0.6-0.1C-379.2,309.1-378.3,310-378.3,311.2z M-397,311.2
			c0,1.2-1,2.1-2.1,2.1c-1.2,0-2.1-1-2.1-2.1c0-1.2,1-2.1,2.1-2.1C-398,309.1-397,310-397,311.2z"/>
		<path class="st2" d="M-414.7,279.3h31.5c0.9,0,1.7-0.7,1.7-1.6l1.7-30.6c0-0.5-0.1-0.9-0.5-1.3c-0.3-0.3-0.8-0.5-1.2-0.5h-34.9
			c-0.5,0-0.9,0.2-1.2,0.5c-0.3,0.3-0.5,0.8-0.5,1.3l1.7,30.6C-416.4,278.6-415.7,279.3-414.7,279.3z"/>
	</g>
</g>
</svg>
