<?xml version="1.0" encoding="utf-8"?>
<!-- Generator: Adobe Illustrator 19.1.0, SVG Export Plug-In . SVG Version: 6.00 Build 0)  -->
<svg version="1.1" id="Слой_1" xmlns="http://www.w3.org/2000/svg" xmlns:xlink="http://www.w3.org/1999/xlink" x="0px" y="0px"
	 viewBox="-439 241 80 80" style="enable-background:new -439 241 80 80;" xml:space="preserve">
<style type="text/css">
	.st0{fill:#66AACD;}
	.st1{clip-path:url(#SVGID_2_);}
	.st2{fill:#6FBAE0;}
</style>
<g>
	<polygon class="st0" points="-376.5,283.7 -378.8,283.7 -378.8,287.8 -383,287.8 -383,290.1 -378.8,290.1 -378.8,294.2 
		-376.5,294.2 -376.5,290.1 -372.4,290.1 -372.4,287.8 -376.5,287.8 	"/>
	<path class="st0" d="M-377.8,274.8c-7.8,0-14.1,6.3-14.1,14.1c0,7.8,6.3,14.1,14.1,14.1c7.8,0,14.1-6.3,14.1-14.1
		C-363.7,281.1-370,274.8-377.8,274.8z M-377.8,299.6c-5.9,0-10.7-4.8-10.7-10.7c0-5.9,4.8-10.7,10.7-10.7c5.9,0,10.7,4.8,10.7,10.7
		C-367.1,294.8-371.9,299.6-377.8,299.6z"/>
	<path class="st0" d="M-392.6,295.7l-1.4,0.3v-7.2c2.7-4.6,4.7-10.5,5.1-16.3c0.5-1,3.4-7.6,1.5-16.3c-1.4-6.6-9.2-11.7-17.8-11.7
		c-4.1,0-7.8,1.2-10.8,3.5c-1.4,0.4-5.5,2-7.2,6.5c-2,5.3-1.1,12.9,0.6,17.8c0.3,6.4,2.1,12.1,4.9,16.5v7.3l-1.6-0.3l-2,4.8l-13,6
		l0.3,1.3c0.3,1.1,1.4,2.1,1.8,2.4l0.2,0.1c7.9,4.7,17,7.2,26.3,7.2c9.3,0,18.4-2.5,26.4-7.2c0.5-0.3,1.9-1.2,2-2.8l0.1-1.1
		l-12.8-6.3L-392.6,295.7z M-419.2,270L-419.2,270c0-3.3,0.7-10.4,5.4-11.7c1.6,1.6,6,5,12.5,5c2.1,0,4.2-0.4,6.3-1.1
		c0.9,1.1,2.6,3.5,2.8,7.7c-0.1,8-3.6,17.2-8.2,21.3c-1.7,1.6-3.5,2.3-5.2,2.1C-413.4,292.7-419.2,282.7-419.2,270z M-414.3,292.9
		c2.4,2.3,5.3,3.7,8.4,4c0.3,0,0.5,0,0.8,0c2.4,0,4.8-1,7-3c0.2-0.2,0.5-0.4,0.7-0.7v3.5l-8.7,1.7l-8.3-1.7V292.9z"/>
</g>
<g>
	<defs>
		<rect id="SVGID_1_" x="-439" y="241" width="40" height="80"/>
	</defs>
	<clipPath id="SVGID_2_">
		<use xlink:href="#SVGID_1_"  style="overflow:visible;"/>
	</clipPath>
	<g class="st1">
		<path class="st2" d="M-377.8,274.8c-7.8,0-14.1,6.3-14.1,14.1c0,7.8,6.3,14.1,14.1,14.1c7.8,0,14.1-6.3,14.1-14.1
			C-363.7,281.1-370,274.8-377.8,274.8z M-377.8,299.6c-5.9,0-10.7-4.8-10.7-10.7c0-5.9,4.8-10.7,10.7-10.7
			c5.9,0,10.7,4.8,10.7,10.7C-367.1,294.8-371.9,299.6-377.8,299.6z"/>
		<path class="st2" d="M-392.6,295.7l-1.4,0.3v-7.2c2.7-4.6,4.7-10.5,5.1-16.3c0.5-1,3.4-7.6,1.5-16.3c-1.4-6.6-9.2-11.7-17.8-11.7
			c-4.1,0-7.8,1.2-10.8,3.5c-1.4,0.4-5.5,2-7.2,6.5c-2,5.3-1.1,12.9,0.6,17.8c0.3,6.4,2.1,12.1,4.9,16.5v7.3l-1.6-0.3l-2,4.8l-13,6
			l0.3,1.3c0.3,1.1,1.4,2.1,1.8,2.4l0.2,0.1c7.9,4.7,17,7.2,26.3,7.2c9.3,0,18.4-2.5,26.4-7.2c0.5-0.3,1.9-1.2,2-2.8l0.1-1.1
			l-12.8-6.3L-392.6,295.7z M-419.2,270L-419.2,270c0-3.3,0.7-10.4,5.4-11.7c1.6,1.6,6,5,12.5,5c2.1,0,4.2-0.4,6.3-1.1
			c0.9,1.1,2.6,3.5,2.8,7.7c-0.1,8-3.6,17.2-8.2,21.3c-1.7,1.6-3.5,2.3-5.2,2.1C-413.4,292.7-419.2,282.7-419.2,270z M-414.3,292.9
			c2.4,2.3,5.3,3.7,8.4,4c0.3,0,0.5,0,0.8,0c2.4,0,4.8-1,7-3c0.2-0.2,0.5-0.4,0.7-0.7v3.5l-8.7,1.7l-8.3-1.7V292.9z"/>
		<polygon class="st2" points="-376.5,283.7 -378.8,283.7 -378.8,287.8 -383,287.8 -383,290.1 -378.8,290.1 -378.8,294.2 
			-376.5,294.2 -376.5,290.1 -372.4,290.1 -372.4,287.8 -376.5,287.8 		"/>
	</g>
</g>
</svg>
