<?xml version="1.0" encoding="utf-8"?>
<!-- Generator: Adobe Illustrator 19.1.0, SVG Export Plug-In . SVG Version: 6.00 Build 0)  -->
<svg version="1.1" id="Слой_1" xmlns="http://www.w3.org/2000/svg" xmlns:xlink="http://www.w3.org/1999/xlink" x="0px" y="0px"
	 viewBox="-439 241 80 80" style="enable-background:new -439 241 80 80;" xml:space="preserve">
<style type="text/css">
	.st0{fill:#66AACD;}
	.st1{clip-path:url(#SVGID_2_);fill:#6FBAE0;}
</style>
<path class="st0" d="M-364.3,253c-11.1-4.8-22.8-7.3-34.7-7.3c-20.4,0-34.3,7-34.8,7.3c-0.6,0.3-0.9,0.9-0.9,1.5
	c0,0.6,0,15.4,4.2,30.5c5.7,20.5,16.3,31.3,30.7,31.3c14.4,0,25.3-10.8,31.5-31.2c4.6-15.1,5.1-29.9,5.1-30.5
	C-363.2,253.9-363.6,253.3-364.3,253z M-388.8,283.3c0,0.9-0.8,1.7-1.7,1.7h-7.7v14.4c0,0.9-0.8,1.7-1.7,1.7c-0.9,0-1.7-0.8-1.7-1.7
	V285h-6.8c-0.9,0-1.7-0.8-1.7-1.7v-14.4c0-0.9,0.8-1.7,1.7-1.7h3.4V263c0-0.9,0.8-1.7,1.7-1.7c0.9,0,1.7,0.8,1.7,1.7v4.2h4.3V263
	c0-0.9,0.8-1.7,1.7-1.7c0.9,0,1.7,0.8,1.7,1.7v4.2h3.4c0.9,0,1.7,0.8,1.7,1.7V283.3z"/>
<g>
	<defs>
		<rect id="SVGID_1_" x="-439" y="241" width="40" height="80"/>
	</defs>
	<clipPath id="SVGID_2_">
		<use xlink:href="#SVGID_1_"  style="overflow:visible;"/>
	</clipPath>
	<path class="st1" d="M-364.3,253c-11.1-4.8-22.8-7.3-34.7-7.3c-20.4,0-34.3,7-34.8,7.3c-0.6,0.3-0.9,0.9-0.9,1.5
		c0,0.6,0,15.4,4.2,30.5c5.7,20.5,16.3,31.3,30.7,31.3c14.4,0,25.3-10.8,31.5-31.2c4.6-15.1,5.1-29.9,5.1-30.5
		C-363.2,253.9-363.6,253.3-364.3,253z M-388.8,283.3c0,0.9-0.8,1.7-1.7,1.7h-7.7v14.4c0,0.9-0.8,1.7-1.7,1.7
		c-0.9,0-1.7-0.8-1.7-1.7V285h-6.8c-0.9,0-1.7-0.8-1.7-1.7v-14.4c0-0.9,0.8-1.7,1.7-1.7h3.4V263c0-0.9,0.8-1.7,1.7-1.7
		c0.9,0,1.7,0.8,1.7,1.7v4.2h4.3V263c0-0.9,0.8-1.7,1.7-1.7c0.9,0,1.7,0.8,1.7,1.7v4.2h3.4c0.9,0,1.7,0.8,1.7,1.7V283.3z"/>
</g>
</svg>
