<?xml version="1.0" encoding="utf-8"?>
<!-- Generator: Adobe Illustrator 19.1.0, SVG Export Plug-In . SVG Version: 6.00 Build 0)  -->
<svg version="1.1" id="Слой_1" xmlns="http://www.w3.org/2000/svg" xmlns:xlink="http://www.w3.org/1999/xlink" x="0px" y="0px"
	 viewBox="-439 241 80 80" style="enable-background:new -439 241 80 80;" xml:space="preserve">
<style type="text/css">
	.st0{fill:#66AACD;}
	.st1{clip-path:url(#SVGID_2_);}
	.st2{fill:#6FBAE0;}
</style>
<g>
	<path class="st0" d="M-398.7,273.6c-7.8,0-14.1,6.3-14.1,14.1c0,7.8,6.3,14.1,14.1,14.1c7.8,0,14.1-6.3,14.1-14.1
		C-384.6,279.9-391,273.6-398.7,273.6z M-390.5,288.9h-6.4v6.4h-3.6v-6.4h-6.4v-3.6h6.4v-6.5h3.6v6.5h6.4V288.9z"/>
	<path class="st0" d="M-373.5,256.8h-11.1v-4c0-4.1-2.7-7.1-6.4-7.1h-14.9c-3.6,0-7.7,2.8-7.7,6.9v4.1h-11.1
		c-5.6,0-10.2,4.6-10.2,10.2v39.1c0,5.6,4.6,10.2,10.2,10.2h51.1c5.6,0,10.2-4.6,10.2-10.2V267
		C-363.2,261.3-367.8,256.8-373.5,256.8z M-398.7,305.2c-9.6,0-17.5-7.8-17.5-17.5c0-9.6,7.8-17.5,17.5-17.5
		c9.6,0,17.5,7.8,17.5,17.5C-381.2,297.3-389.1,305.2-398.7,305.2z M-410.1,252.6c0-2,2.3-3.5,4.2-3.5h14.9c2.1,0,3,1.8,3,3.7v4
		h-22.1V252.6z"/>
</g>
<g>
	<defs>
		<rect id="SVGID_1_" x="-439" y="241" width="40" height="80"/>
	</defs>
	<clipPath id="SVGID_2_">
		<use xlink:href="#SVGID_1_"  style="overflow:visible;"/>
	</clipPath>
	<g class="st1">
		<path class="st2" d="M-398.7,273.6c-7.8,0-14.1,6.3-14.1,14.1c0,7.8,6.3,14.1,14.1,14.1c7.8,0,14.1-6.3,14.1-14.1
			C-384.6,279.9-391,273.6-398.7,273.6z M-390.5,288.9h-6.4v6.4h-3.6v-6.4h-6.4v-3.6h6.4v-6.5h3.6v6.5h6.4V288.9z"/>
		<path class="st2" d="M-373.5,256.8h-11.1v-4c0-4.1-2.7-7.1-6.4-7.1h-14.9c-3.6,0-7.7,2.8-7.7,6.9v4.1h-11.1
			c-5.6,0-10.2,4.6-10.2,10.2v39.1c0,5.6,4.6,10.2,10.2,10.2h51.1c5.6,0,10.2-4.6,10.2-10.2V267
			C-363.2,261.3-367.8,256.8-373.5,256.8z M-398.7,305.2c-9.6,0-17.5-7.8-17.5-17.5c0-9.6,7.8-17.5,17.5-17.5
			c9.6,0,17.5,7.8,17.5,17.5C-381.2,297.3-389.1,305.2-398.7,305.2z M-410.1,252.6c0-2,2.3-3.5,4.2-3.5h14.9c2.1,0,3,1.8,3,3.7v4
			h-22.1V252.6z"/>
	</g>
</g>
</svg>
