<?xml version="1.0" encoding="utf-8"?>
<!-- Generator: Adobe Illustrator 19.1.0, SVG Export Plug-In . SVG Version: 6.00 Build 0)  -->
<svg version="1.1" id="Слой_1" xmlns="http://www.w3.org/2000/svg" xmlns:xlink="http://www.w3.org/1999/xlink" x="0px" y="0px"
	 viewBox="-439 241 80 80" style="enable-background:new -439 241 80 80;" xml:space="preserve">
<style type="text/css">
	.st0{fill:#66AACD;}
	.st1{clip-path:url(#SVGID_2_);fill:#6FBAE0;}
</style>
<path class="st0" d="M-409.9,314.5c-9.9,2.9-11.3-3.5-11.3-3.5l-6.4-18.5h15.8l4.9,11.2C-403.3,312.9-409.9,314.5-409.9,314.5z
	 M-427.6,290c-6.2,0-6.2-11.4-6.2-11.4c0-12.2,7.3-11.4,7.3-11.4h20.7V290H-427.6z M-369.9,287v27.2l-32.4-23.2v-25.5l32.4-20.4
	v25.1C-369.9,270.3-364,278.7-369.9,287z"/>
<g>
	<defs>
		<rect id="SVGID_1_" x="-439" y="241" width="40" height="80"/>
	</defs>
	<clipPath id="SVGID_2_">
		<use xlink:href="#SVGID_1_"  style="overflow:visible;"/>
	</clipPath>
	<path class="st1" d="M-409.9,314.5c-9.9,2.9-11.3-3.5-11.3-3.5l-6.4-18.5h15.8l4.9,11.2C-403.3,312.9-409.9,314.5-409.9,314.5z
		 M-427.6,290c-6.2,0-6.2-11.4-6.2-11.4c0-12.2,7.3-11.4,7.3-11.4h20.7V290H-427.6z M-369.9,287v27.2l-32.4-23.2v-25.5l32.4-20.4
		v25.1C-369.9,270.3-364,278.7-369.9,287z"/>
</g>
</svg>
