<?xml version="1.0" encoding="utf-8"?>
<!-- Generator: Adobe Illustrator 19.1.0, SVG Export Plug-In . SVG Version: 6.00 Build 0)  -->
<svg version="1.1" id="Слой_1" xmlns="http://www.w3.org/2000/svg" xmlns:xlink="http://www.w3.org/1999/xlink" x="0px" y="0px"
	 viewBox="-439 241 80 80" style="enable-background:new -439 241 80 80;" xml:space="preserve">
<style type="text/css">
	.st0{fill:#66AACD;}
	.st1{clip-path:url(#SVGID_2_);fill:#6FBAE0;}
</style>
<path class="st0" d="M-368.5,266c-0.9,0-1.7,0.8-1.7,1.7c0,9.5-7.8,17.3-17.4,17.3c-1,0-1.7,0.8-1.7,1.7c0,0.9,0.8,1.7,1.7,1.7
	c11.5,0,20.8-9.3,20.8-20.7C-366.8,266.8-367.5,266-368.5,266z M-386.7,291.8c-12.5,0-22.6-10-22.6-22.4c0-12.4,10.1-22.4,22.6-22.4
	c12.5,0,22.6,10,22.6,22.4C-364.2,281.8-374.3,291.8-386.7,291.8z M-424.9,314.1c-2,1.9-5.1,1.8-7-0.2l-0.3-0.3
	c-1.9-2-1.8-5,0.2-6.9l23.7-23.1l7.1,7.4L-424.9,314.1z"/>
<g>
	<defs>
		<rect id="SVGID_1_" x="-439" y="241" width="40" height="80"/>
	</defs>
	<clipPath id="SVGID_2_">
		<use xlink:href="#SVGID_1_"  style="overflow:visible;"/>
	</clipPath>
	<path class="st1" d="M-368.5,266c-0.9,0-1.7,0.8-1.7,1.7c0,9.5-7.8,17.3-17.4,17.3c-1,0-1.7,0.8-1.7,1.7c0,0.9,0.8,1.7,1.7,1.7
		c11.5,0,20.8-9.3,20.8-20.7C-366.8,266.8-367.5,266-368.5,266z M-386.7,291.8c-12.5,0-22.6-10-22.6-22.4
		c0-12.4,10.1-22.4,22.6-22.4c12.5,0,22.6,10,22.6,22.4C-364.2,281.8-374.3,291.8-386.7,291.8z M-424.9,314.1c-2,1.9-5.1,1.8-7-0.2
		l-0.3-0.3c-1.9-2-1.8-5,0.2-6.9l23.7-23.1l7.1,7.4L-424.9,314.1z"/>
</g>
</svg>
