<?xml version="1.0" encoding="utf-8"?>
<!-- Generator: Adobe Illustrator 19.1.0, SVG Export Plug-In . SVG Version: 6.00 Build 0)  -->
<svg version="1.1" id="Слой_1" xmlns="http://www.w3.org/2000/svg" xmlns:xlink="http://www.w3.org/1999/xlink" x="0px" y="0px"
	 viewBox="-439 241 80 80" style="enable-background:new -439 241 80 80;" xml:space="preserve">
<style type="text/css">
	.st0{fill:#66AACD;}
	.st1{clip-path:url(#SVGID_2_);}
	.st2{fill:#6FBAE0;}
</style>
<g>
	<path class="st0" d="M-411.6,278.8l3.8,4.2l10.7-9.8l-5-5.2c0.8-9.6-3.5-21.8-18.8-20.3l8.8,9.7l-2,8.6l-9.1,2l-9-9.2
		C-433.5,271.5-425.2,279.2-411.6,278.8z"/>
	<path class="st0" d="M-400.9,291.2l27.1-26.4l3.2-0.5l5.2-9.5l-3.6-3.4l-9.4,6l-0.5,3.2l-26.1,26.1c-0.8-0.4-1.8-0.5-2.8-0.5
		c-4,0-7.2,3.2-7.2,7.2c0,0.1,0,0.1,0,0.2l-7,7c-0.1,0-0.1,0-0.2,0c-4,0-7.2,3.2-7.2,7.2c0,4,3.2,7.2,7.2,7.2c3.7,0,6.8-2.9,7.2-6.5
		l7.5-7.9c3.9-0.1,7-3.3,7-7.2C-400.5,292.6-400.7,291.9-400.9,291.2L-400.9,291.2z"/>
	<path class="st0" d="M-367.2,302.2L-388,283l-8.5,9l19.4,20.6c1.3,1.5,3.2,2.4,5.4,2.4c4,0,7.2-3.2,7.2-7.2
		C-364.5,305.6-365.6,303.5-367.2,302.2z"/>
</g>
<g>
	<defs>
		<rect id="SVGID_1_" x="-439" y="241" width="40" height="80"/>
	</defs>
	<clipPath id="SVGID_2_">
		<use xlink:href="#SVGID_1_"  style="overflow:visible;"/>
	</clipPath>
	<g class="st1">
		<path class="st2" d="M-400.9,291.2l27.1-26.4l3.2-0.5l5.2-9.5l-3.6-3.4l-9.4,6l-0.5,3.2l-26.1,26.1c-0.8-0.4-1.8-0.5-2.8-0.5
			c-4,0-7.2,3.2-7.2,7.2c0,0.1,0,0.1,0,0.2l-7,7c-0.1,0-0.1,0-0.2,0c-4,0-7.2,3.2-7.2,7.2c0,4,3.2,7.2,7.2,7.2
			c3.7,0,6.8-2.9,7.2-6.5l7.5-7.9c3.9-0.1,7-3.3,7-7.2C-400.5,292.6-400.7,291.9-400.9,291.2L-400.9,291.2z"/>
		<path class="st2" d="M-411.6,278.8l3.8,4.2l10.7-9.8l-5-5.2c0.8-9.6-3.5-21.8-18.8-20.3l8.8,9.7l-2,8.6l-9.1,2l-9-9.2
			C-433.5,271.5-425.2,279.2-411.6,278.8z"/>
		<path class="st2" d="M-367.2,302.2L-388,283l-8.5,9l19.4,20.6c1.3,1.5,3.2,2.4,5.4,2.4c4,0,7.2-3.2,7.2-7.2
			C-364.5,305.6-365.6,303.5-367.2,302.2z"/>
	</g>
</g>
</svg>
