<?xml version="1.0" encoding="utf-8"?>
<!-- Generator: Adobe Illustrator 19.1.0, SVG Export Plug-In . SVG Version: 6.00 Build 0)  -->
<svg version="1.1" id="Слой_1" xmlns="http://www.w3.org/2000/svg" xmlns:xlink="http://www.w3.org/1999/xlink" x="0px" y="0px"
	 viewBox="-439 241 80 80" style="enable-background:new -439 241 80 80;" xml:space="preserve">
<style type="text/css">
	.st0{fill:#66AACD;}
	.st1{clip-path:url(#SVGID_2_);}
	.st2{fill:#6FBAE0;}
</style>
<g>
	<path class="st0" d="M-366.4,282.9c-1,0.6-2.4,1.2-4.3,1.7c-2.9,0.8-6.8,1.5-11.3,2c-5,0.5-10.8,0.8-17,0.8c-6.2,0-12-0.3-17-0.8
		c-4.6-0.5-8.4-1.2-11.4-2c-1.8-0.5-3.3-1.1-4.3-1.7c-0.9,0.5-1.4,1.1-1.4,1.7c0,0,0,0.1,0,0.1v7.3v0.1c0,0,0,0.1,0,0.1
		c0.1,0.6,0.6,1.2,1.4,1.7c1.1,0.7,2.7,1.3,4.8,1.9c6.2,1.6,16.3,2.7,27.8,2.7c11.5,0,21.6-1.1,27.8-2.7c2.1-0.6,3.7-1.2,4.8-1.9
		c0.9-0.6,1.5-1.2,1.5-1.9c0-0.1,0-0.2,0-0.3h0v-7.1c0-0.1,0-0.1,0-0.1C-365,284-365.5,283.4-366.4,282.9z"/>
	<path class="st0" d="M-366.4,297.7c-0.8,0.5-1.9,1-3.3,1.4c-3,0.9-7.2,1.7-12.3,2.3c-5,0.5-10.8,0.9-17,0.9c-6.2,0-12-0.3-17-0.9
		c-5.1-0.5-9.3-1.3-12.3-2.3c-1.4-0.4-2.5-0.9-3.3-1.4c-0.7,0.5-1.2,0.9-1.4,1.4c-0.1,0.1-0.1,0.3-0.1,0.4v7.3v0.1c0,0,0,0.1,0,0.1
		c0.1,0.6,0.6,1.2,1.4,1.7c4.2,2.6,17.2,4.6,32.6,4.6c15.4,0,28.4-1.9,32.6-4.6c0.9-0.6,1.4-1.2,1.4-1.9c0-0.1,0-0.2,0-0.3h0v-7.1
		c0-0.1,0-0.3-0.1-0.4C-365.2,298.6-365.7,298.1-366.4,297.7z"/>
	<path class="st0" d="M-366.2,267.9c-1.1,0.8-3.1,1.5-5.6,2.1c-2.8,0.7-6.3,1.3-10.3,1.7c-5,0.5-10.8,0.9-16.9,0.9
		c-6.2,0-12-0.3-16.9-0.9c-4-0.4-7.5-1-10.3-1.7c-2.5-0.6-4.5-1.3-5.6-2.1c-0.8,0.5-1.2,1.1-1.2,1.7c0,0.1,0,0.3,0.1,0.4h-0.1v7.3
		c0,0.1,0,0.3,0.1,0.4c0.2,0.5,0.6,1,1.4,1.4c1.1,0.7,2.7,1.3,4.8,1.8c6.2,1.6,16.3,2.7,27.8,2.7c11.5,0,21.6-1.1,27.8-2.7
		c2.1-0.6,3.7-1.2,4.8-1.8c0.9-0.6,1.4-1.2,1.4-1.9V270h-0.1c0-0.1,0.1-0.3,0.1-0.4C-364.9,269-365.4,268.4-366.2,267.9z"/>
	<path class="st0" d="M-364.9,255.1c0-0.1,0-0.3-0.1-0.4c-1.2-3.3-15.9-6-34-6c-18,0-32.8,2.6-34,6c-0.1,0.1-0.1,0.3-0.1,0.4v7.5h0
		c0,0,0,0.1,0,0.1c0,0.6,0.4,1.2,1.2,1.7c0.9,0.6,2.3,1.2,4,1.7c6,1.8,16.7,3,28.8,3c12.1,0,22.8-1.2,28.8-3c1.8-0.5,3.1-1.1,4-1.7
		c0.8-0.5,1.2-1.1,1.2-1.7c0-0.2,0-0.4-0.1-0.6h0.1V255.1z"/>
</g>
<g>
	<defs>
		<rect id="SVGID_1_" x="-439" y="241" width="40" height="80"/>
	</defs>
	<clipPath id="SVGID_2_">
		<use xlink:href="#SVGID_1_"  style="overflow:visible;"/>
	</clipPath>
	<g class="st1">
		<path class="st2" d="M-366.4,282.9c-1,0.6-2.4,1.2-4.3,1.7c-2.9,0.8-6.8,1.5-11.3,2c-5,0.5-10.8,0.8-17,0.8c-6.2,0-12-0.3-17-0.8
			c-4.6-0.5-8.4-1.2-11.4-2c-1.8-0.5-3.3-1.1-4.3-1.7c-0.9,0.5-1.4,1.1-1.4,1.7c0,0,0,0.1,0,0.1v7.3v0.1c0,0,0,0.1,0,0.1
			c0.1,0.6,0.6,1.2,1.4,1.7c1.1,0.7,2.7,1.3,4.8,1.9c6.2,1.6,16.3,2.7,27.8,2.7c11.5,0,21.6-1.1,27.8-2.7c2.1-0.6,3.7-1.2,4.8-1.9
			c0.9-0.6,1.5-1.2,1.5-1.9c0-0.1,0-0.2,0-0.3h0v-7.1c0-0.1,0-0.1,0-0.1C-365,284-365.5,283.4-366.4,282.9z"/>
		<path class="st2" d="M-366.4,297.7c-0.8,0.5-1.9,1-3.3,1.4c-3,0.9-7.2,1.7-12.3,2.3c-5,0.5-10.8,0.9-17,0.9c-6.2,0-12-0.3-17-0.9
			c-5.1-0.5-9.3-1.3-12.3-2.3c-1.4-0.4-2.5-0.9-3.3-1.4c-0.7,0.5-1.2,0.9-1.4,1.4c-0.1,0.1-0.1,0.3-0.1,0.4v7.3v0.1c0,0,0,0.1,0,0.1
			c0.1,0.6,0.6,1.2,1.4,1.7c4.2,2.6,17.2,4.6,32.6,4.6c15.4,0,28.4-1.9,32.6-4.6c0.9-0.6,1.4-1.2,1.4-1.9c0-0.1,0-0.2,0-0.3h0v-7.1
			c0-0.1,0-0.3-0.1-0.4C-365.2,298.6-365.7,298.1-366.4,297.7z"/>
		<path class="st2" d="M-366.2,267.9c-1.1,0.8-3.1,1.5-5.6,2.1c-2.8,0.7-6.3,1.3-10.3,1.7c-5,0.5-10.8,0.9-16.9,0.9
			c-6.2,0-12-0.3-16.9-0.9c-4-0.4-7.5-1-10.3-1.7c-2.5-0.6-4.5-1.3-5.6-2.1c-0.8,0.5-1.2,1.1-1.2,1.7c0,0.1,0,0.3,0.1,0.4h-0.1v7.3
			c0,0.1,0,0.3,0.1,0.4c0.2,0.5,0.6,1,1.4,1.4c1.1,0.7,2.7,1.3,4.8,1.8c6.2,1.6,16.3,2.7,27.8,2.7c11.5,0,21.6-1.1,27.8-2.7
			c2.1-0.6,3.7-1.2,4.8-1.8c0.9-0.6,1.4-1.2,1.4-1.9V270h-0.1c0-0.1,0.1-0.3,0.1-0.4C-364.9,269-365.4,268.4-366.2,267.9z"/>
		<path class="st2" d="M-364.9,255.1c0-0.1,0-0.3-0.1-0.4c-1.2-3.3-15.9-6-34-6c-18,0-32.8,2.6-34,6c-0.1,0.1-0.1,0.3-0.1,0.4v7.5h0
			c0,0,0,0.1,0,0.1c0,0.6,0.4,1.2,1.2,1.7c0.9,0.6,2.3,1.2,4,1.7c6,1.8,16.7,3,28.8,3c12.1,0,22.8-1.2,28.8-3c1.8-0.5,3.1-1.1,4-1.7
			c0.8-0.5,1.2-1.1,1.2-1.7c0-0.2,0-0.4-0.1-0.6h0.1V255.1z"/>
	</g>
</g>
</svg>
