<?xml version="1.0" encoding="utf-8"?>
<!-- Generator: Adobe Illustrator 19.1.0, SVG Export Plug-In . SVG Version: 6.00 Build 0)  -->
<svg version="1.1" id="Слой_1" xmlns="http://www.w3.org/2000/svg" xmlns:xlink="http://www.w3.org/1999/xlink" x="0px" y="0px"
	 viewBox="-439 241 80 80" style="enable-background:new -439 241 80 80;" xml:space="preserve">
<style type="text/css">
	.st0{fill:#66AACD;}
	.st1{clip-path:url(#SVGID_2_);fill:#6FBAE0;}
</style>
<path class="st0" d="M-391.9,293.1l-21.5-19.5l20.7-22.8l21.5,19.5L-391.9,293.1z M-422.6,313.5c-1.8,2-4.9,2.2-6.9,0.3l-0.3-0.3
	c-2-1.8-2.2-4.9-0.3-6.9l22-24.8l7.6,6.9L-422.6,313.5z M-368.8,284.1l-9.2,10.1c-3.2,3.5-8.6,3.7-12.1,0.6l20.7-22.8
	C-365.9,275.3-365.6,280.7-368.8,284.1z M-415.3,271.8c-3.5-3.2-3.8-8.6-0.6-12.1l9.2-10.1c3.2-3.5,8.6-3.7,12.1-0.6L-415.3,271.8z"
	/>
<g>
	<defs>
		<rect id="SVGID_1_" x="-439" y="241" width="40" height="80"/>
	</defs>
	<clipPath id="SVGID_2_">
		<use xlink:href="#SVGID_1_"  style="overflow:visible;"/>
	</clipPath>
	<path class="st1" d="M-391.9,293.1l-21.5-19.5l20.7-22.8l21.5,19.5L-391.9,293.1z M-422.6,313.5c-1.8,2-4.9,2.2-6.9,0.3l-0.3-0.3
		c-2-1.8-2.2-4.9-0.3-6.9l22-24.8l7.6,6.9L-422.6,313.5z M-368.8,284.1l-9.2,10.1c-3.2,3.5-8.6,3.7-12.1,0.6l20.7-22.8
		C-365.9,275.3-365.6,280.7-368.8,284.1z M-415.3,271.8c-3.5-3.2-3.8-8.6-0.6-12.1l9.2-10.1c3.2-3.5,8.6-3.7,12.1-0.6L-415.3,271.8z
		"/>
</g>
</svg>
