<?xml version="1.0" encoding="utf-8"?>
<!-- Generator: Adobe Illustrator 19.1.0, SVG Export Plug-In . SVG Version: 6.00 Build 0)  -->
<svg version="1.1" id="Слой_1" xmlns="http://www.w3.org/2000/svg" xmlns:xlink="http://www.w3.org/1999/xlink" x="0px" y="0px"
	 viewBox="-439 241 80 80" style="enable-background:new -439 241 80 80;" xml:space="preserve">
<style type="text/css">
	.st0{fill:#66AACD;}
	.st1{clip-path:url(#SVGID_2_);fill:#6FBAE0;}
</style>
<path class="st0" d="M-364,262.3l-6.9-3.3l-27.4-13.1c-0.5-0.2-1-0.2-1.5,0l-27.5,13.2l-6.7,3.2c-0.9,0.4-1.2,1.4-0.8,2.3
	c0.4,0.9,1.4,1.2,2.3,0.8l4.4-2.1V306c0,5.7,4.6,10.3,10.3,10.3h37.7c5.7,0,10.3-4.6,10.3-10.3v-42.7l4.4,2.1
	c0.2,0.1,0.5,0.2,0.7,0.2c0.6,0,1.3-0.4,1.5-1C-362.8,263.7-363.2,262.7-364,262.3z M-413.2,295.3c0.1-0.8,0.6-2,1.2-2.6l16.4-16.3
	c0.2-0.2,0.6-0.4,0.9-0.4c0.3,0,0.7,0.1,0.9,0.4l5.4,5.5c0.2,0.2,0.4,0.6,0.4,0.9c0,0.3-0.1,0.7-0.4,0.9l-16.4,16.3
	c-0.6,0.6-1.8,1.1-2.7,1.2l-5.1,0.4h-0.1c-0.3,0-0.6-0.1-0.8-0.3c-0.2-0.2-0.3-0.5-0.3-0.8L-413.2,295.3z M-391.4,272.2l1.8-1.8
	c0.2-0.2,0.6-0.4,0.9-0.4s0.7,0.1,0.9,0.4l5.4,5.5c0.5,0.5,0.5,1.3,0,1.8l-1.8,1.8c-0.5,0.5-1.3,0.5-1.8,0l-5.4-5.5
	C-391.9,273.5-391.9,272.7-391.4,272.2z"/>
<g>
	<defs>
		<rect id="SVGID_1_" x="-439" y="241" width="40" height="80"/>
	</defs>
	<clipPath id="SVGID_2_">
		<use xlink:href="#SVGID_1_"  style="overflow:visible;"/>
	</clipPath>
	<path class="st1" d="M-364,262.3l-6.9-3.3l-27.4-13.1c-0.5-0.2-1-0.2-1.5,0l-27.5,13.2l-6.7,3.2c-0.9,0.4-1.2,1.4-0.8,2.3
		c0.4,0.9,1.4,1.2,2.3,0.8l4.4-2.1V306c0,5.7,4.6,10.3,10.3,10.3h37.7c5.7,0,10.3-4.6,10.3-10.3v-42.7l4.4,2.1
		c0.2,0.1,0.5,0.2,0.7,0.2c0.6,0,1.3-0.4,1.5-1C-362.8,263.7-363.2,262.7-364,262.3z M-413.2,295.3c0.1-0.8,0.6-2,1.2-2.6l16.4-16.3
		c0.2-0.2,0.6-0.4,0.9-0.4c0.3,0,0.7,0.1,0.9,0.4l5.4,5.5c0.2,0.2,0.4,0.6,0.4,0.9c0,0.3-0.1,0.7-0.4,0.9l-16.4,16.3
		c-0.6,0.6-1.8,1.1-2.7,1.2l-5.1,0.4h-0.1c-0.3,0-0.6-0.1-0.8-0.3c-0.2-0.2-0.3-0.5-0.3-0.8L-413.2,295.3z M-391.4,272.2l1.8-1.8
		c0.2-0.2,0.6-0.4,0.9-0.4s0.7,0.1,0.9,0.4l5.4,5.5c0.5,0.5,0.5,1.3,0,1.8l-1.8,1.8c-0.5,0.5-1.3,0.5-1.8,0l-5.4-5.5
		C-391.9,273.5-391.9,272.7-391.4,272.2z"/>
</g>
</svg>
