<?xml version="1.0" encoding="utf-8"?>
<!-- Generator: Adobe Illustrator 19.1.0, SVG Export Plug-In . SVG Version: 6.00 Build 0)  -->
<svg version="1.1" id="Слой_1" xmlns="http://www.w3.org/2000/svg" xmlns:xlink="http://www.w3.org/1999/xlink" x="0px" y="0px"
	 viewBox="-439 241 80 80" style="enable-background:new -439 241 80 80;" xml:space="preserve">
<style type="text/css">
	.st0{fill:#66AACD;}
	.st1{clip-path:url(#SVGID_2_);}
	.st2{fill:#6FBAE0;}
</style>
<g>
	<path class="st0" d="M-423.8,247.6h-6.5c-0.9,0-1.6,0.7-1.6,1.6v64c0,0.9,0.7,1.6,1.6,1.6h6.5c0.9,0,1.6-0.7,1.6-1.6v-64
		C-422.2,248.4-422.9,247.6-423.8,247.6z"/>
	<path class="st0" d="M-368,247.6h-11.3c-0.9,0-1.6,0.7-1.6,1.6v16.6l-6.8-3.6c-0.4-0.2-1-0.2-1.4,0l-7.3,3.3v-16.3
		c0-0.9-0.7-1.6-1.6-1.6h-18.4c-0.9,0-1.6,0.7-1.6,1.6v64c0,0.9,0.7,1.6,1.6,1.6h48.5c0.9,0,1.6-0.7,1.6-1.6v-64
		C-366.4,248.4-367.1,247.6-368,247.6z"/>
</g>
<g>
	<defs>
		<rect id="SVGID_1_" x="-439" y="241" width="40" height="80"/>
	</defs>
	<clipPath id="SVGID_2_">
		<use xlink:href="#SVGID_1_"  style="overflow:visible;"/>
	</clipPath>
	<g class="st1">
		<path class="st2" d="M-423.8,247.6h-6.5c-0.9,0-1.6,0.7-1.6,1.6v64c0,0.9,0.7,1.6,1.6,1.6h6.5c0.9,0,1.6-0.7,1.6-1.6v-64
			C-422.2,248.4-422.9,247.6-423.8,247.6z"/>
		<path class="st2" d="M-368,247.6h-11.3c-0.9,0-1.6,0.7-1.6,1.6v16.6l-6.8-3.6c-0.4-0.2-1-0.2-1.4,0l-7.3,3.3v-16.3
			c0-0.9-0.7-1.6-1.6-1.6h-18.4c-0.9,0-1.6,0.7-1.6,1.6v64c0,0.9,0.7,1.6,1.6,1.6h48.5c0.9,0,1.6-0.7,1.6-1.6v-64
			C-366.4,248.4-367.1,247.6-368,247.6z"/>
	</g>
</g>
</svg>
