<?xml version="1.0" encoding="utf-8"?>
<!-- Generator: Adobe Illustrator 19.1.0, SVG Export Plug-In . SVG Version: 6.00 Build 0)  -->
<svg version="1.1" id="Слой_1" xmlns="http://www.w3.org/2000/svg" xmlns:xlink="http://www.w3.org/1999/xlink" x="0px" y="0px"
	 viewBox="-439 241 80 80" style="enable-background:new -439 241 80 80;" xml:space="preserve">
<style type="text/css">
	.st0{fill:#66AACD;}
	.st1{clip-path:url(#SVGID_2_);fill:#6FBAE0;}
</style>
<path class="st0" d="M-383.2,298.8l-2.5-4.5l-1.4,0.3v-7.2c3.2-5.2,5.5-12.4,5.6-19v-14.1c0-4.7-3.8-8.5-8.5-8.5h-17
	c-4.7,0-8.5,3.8-8.5,8.5v14.1c0,7.3,1.7,13.8,4.7,18.6v7.5l-1.6-0.3l-2,4.9l-13,6.1l0.3,1.4c0.3,1.1,1.4,2.1,1.8,2.4l0.2,0.1
	c7.9,4.7,17,7.2,26.3,7.2c9.3,0,18.5-2.5,26.4-7.3c0.5-0.3,1.9-1.3,2-2.8l0.1-1.1L-383.2,298.8z M-412.4,266.4
	c4.7-2.3,14.6-5.3,27.9,0.5c-0.4,12.9-4.6,19-9,22.9c-1.8,1.6-3.5,2.3-5.2,2.1C-406.3,291.3-412.4,282.1-412.4,266.4z M-407.5,291.3
	c2.4,2.3,5.3,3.8,8.4,4.1c0.3,0,0.5,0,0.8,0c2.4,0,4.8-1,7.1-3c0.2-0.2,0.5-0.4,0.7-0.7v3.5l-8.7,1.7l-8.3-1.7V291.3z"/>
<g>
	<defs>
		<rect id="SVGID_1_" x="-439" y="241" width="40" height="80"/>
	</defs>
	<clipPath id="SVGID_2_">
		<use xlink:href="#SVGID_1_"  style="overflow:visible;"/>
	</clipPath>
	<path class="st1" d="M-383.2,298.8l-2.5-4.5l-1.4,0.3v-7.2c3.2-5.2,5.5-12.4,5.6-19v-14.1c0-4.7-3.8-8.5-8.5-8.5h-17
		c-4.7,0-8.5,3.8-8.5,8.5v14.1c0,7.3,1.7,13.8,4.7,18.6v7.5l-1.6-0.3l-2,4.9l-13,6.1l0.3,1.4c0.3,1.1,1.4,2.1,1.8,2.4l0.2,0.1
		c7.9,4.7,17,7.2,26.3,7.2c9.3,0,18.5-2.5,26.4-7.3c0.5-0.3,1.9-1.3,2-2.8l0.1-1.1L-383.2,298.8z M-412.4,266.4
		c4.7-2.3,14.6-5.3,27.9,0.5c-0.4,12.9-4.6,19-9,22.9c-1.8,1.6-3.5,2.3-5.2,2.1C-406.3,291.3-412.4,282.1-412.4,266.4z
		 M-407.5,291.3c2.4,2.3,5.3,3.8,8.4,4.1c0.3,0,0.5,0,0.8,0c2.4,0,4.8-1,7.1-3c0.2-0.2,0.5-0.4,0.7-0.7v3.5l-8.7,1.7l-8.3-1.7V291.3
		z"/>
</g>
</svg>
