<?xml version="1.0" encoding="utf-8"?>
<!-- Generator: Adobe Illustrator 19.1.0, SVG Export Plug-In . SVG Version: 6.00 Build 0)  -->
<svg version="1.1" id="Слой_1" xmlns="http://www.w3.org/2000/svg" xmlns:xlink="http://www.w3.org/1999/xlink" x="0px" y="0px"
	 viewBox="-439 241 80 80" style="enable-background:new -439 241 80 80;" xml:space="preserve">
<style type="text/css">
	.st0{fill:#66AACD;}
	.st1{clip-path:url(#SVGID_2_);fill:#6FBAE0;}
</style>
<path class="st0" d="M-409.3,269.6c0.7-0.7,0.7-1.7,0-2.4c-0.7-0.7-1.7-0.7-2.4,0l-10.9,10.9c-0.3,0.3-0.5,0.8-0.5,1.3
	c0,0.5,0.1,0.9,0.5,1.3l10.9,10.9c0.3,0.3,0.8,0.5,1.2,0.5c0.4,0,0.9-0.2,1.2-0.5c0.7-0.7,0.7-1.7,0-2.4l-9.8-9.8L-409.3,269.6z
	 M-394.5,269.7c0.2-0.9-0.3-1.8-1.2-2.1c-0.9-0.2-1.8,0.3-2.1,1.2l-5.9,21.5c-0.2,0.9,0.3,1.8,1.2,2.1c0.1,0,0.3,0.1,0.4,0.1
	c0.8,0,1.4-0.5,1.6-1.2L-394.5,269.7z M-374.7,280.2c0-0.5-0.1-0.9-0.5-1.3l-10.9-10.9c-0.7-0.7-1.7-0.7-2.4,0
	c-0.7,0.7-0.7,1.7,0,2.4l9.8,9.8l-9.8,9.8c-0.7,0.7-0.7,1.7,0,2.4c0.3,0.3,0.8,0.5,1.2,0.5c0.4,0,0.9-0.2,1.2-0.5l10.9-10.9
	C-374.9,281.1-374.7,280.7-374.7,280.2z M-364.9,255.5v51c0,4.7-3.8,8.5-8.5,8.5h-51.1c-4.7,0-8.5-3.8-8.5-8.5v-51
	c0-4.7,3.8-8.5,8.5-8.5h51.1C-368.8,247-364.9,250.8-364.9,255.5z"/>
<g>
	<defs>
		<rect id="SVGID_1_" x="-439" y="241" width="40" height="80"/>
	</defs>
	<clipPath id="SVGID_2_">
		<use xlink:href="#SVGID_1_"  style="overflow:visible;"/>
	</clipPath>
	<path class="st1" d="M-409.3,269.6c0.7-0.7,0.7-1.7,0-2.4c-0.7-0.7-1.7-0.7-2.4,0l-10.9,10.9c-0.3,0.3-0.5,0.8-0.5,1.3
		c0,0.5,0.1,0.9,0.5,1.3l10.9,10.9c0.3,0.3,0.8,0.5,1.2,0.5c0.4,0,0.9-0.2,1.2-0.5c0.7-0.7,0.7-1.7,0-2.4l-9.8-9.8L-409.3,269.6z
		 M-394.5,269.7c0.2-0.9-0.3-1.8-1.2-2.1c-0.9-0.2-1.8,0.3-2.1,1.2l-5.9,21.5c-0.2,0.9,0.3,1.8,1.2,2.1c0.1,0,0.3,0.1,0.4,0.1
		c0.8,0,1.4-0.5,1.6-1.2L-394.5,269.7z M-374.7,280.2c0-0.5-0.1-0.9-0.5-1.3l-10.9-10.9c-0.7-0.7-1.7-0.7-2.4,0
		c-0.7,0.7-0.7,1.7,0,2.4l9.8,9.8l-9.8,9.8c-0.7,0.7-0.7,1.7,0,2.4c0.3,0.3,0.8,0.5,1.2,0.5c0.4,0,0.9-0.2,1.2-0.5l10.9-10.9
		C-374.9,281.1-374.7,280.7-374.7,280.2z M-364.9,255.5v51c0,4.7-3.8,8.5-8.5,8.5h-51.1c-4.7,0-8.5-3.8-8.5-8.5v-51
		c0-4.7,3.8-8.5,8.5-8.5h51.1C-368.8,247-364.9,250.8-364.9,255.5z"/>
</g>
</svg>
